<?xml version="1.0" encoding="utf-8"?>
<!-- Generator: Adobe Illustrator 26.3.1, SVG Export Plug-In . SVG Version: 6.00 Build 0)  -->
<svg version="1.1" id="Calque_1" xmlns="http://www.w3.org/2000/svg" xmlns:xlink="http://www.w3.org/1999/xlink" x="0px" y="0px"
	 viewBox="0 0 49.75 49.68" style="enable-background:new 0 0 49.75 49.68;" xml:space="preserve">
<style type="text/css">
	.st0{fill:#233030;}
</style>
<g>
	<g>
		<g>
			<path class="st0" d="M25.06,41.3c-9.03,0-16.37-7.35-16.37-16.37c0-9.03,7.35-16.37,16.37-16.37s16.37,7.35,16.37,16.37
				S34.09,41.3,25.06,41.3z M25.06,10.88c-7.75,0-14.04,6.3-14.04,14.04s6.3,14.04,14.04,14.04s14.04-6.3,14.04-14.04
				C39.11,17.17,32.81,10.88,25.06,10.88z"/>
			<g>
				<g>
					<g>
						<circle class="st0" cx="25.06" cy="2.15" r="1.81"/>
					</g>
					<g>
						<circle class="st0" cx="13.71" cy="5.15" r="1.81"/>
					</g>
					<g>
						<circle class="st0" cx="5.37" cy="13.42" r="1.81"/>
					</g>
					<g>
						<circle class="st0" cx="2.29" cy="24.75" r="1.81"/>
					</g>
					<g>
						<circle class="st0" cx="5.29" cy="36.11" r="1.81"/>
					</g>
					<g>
						<circle class="st0" cx="13.56" cy="44.44" r="1.81"/>
					</g>
					<g>
						<circle class="st0" cx="24.89" cy="47.52" r="1.81"/>
					</g>
					<g>
						<circle class="st0" cx="36.24" cy="44.52" r="1.81"/>
					</g>
					<g>
						<circle class="st0" cx="44.58" cy="36.25" r="1.81"/>
					</g>
					<g>
						<circle class="st0" cx="47.66" cy="24.92" r="1.81"/>
					</g>
					<g>
						<circle class="st0" cx="44.66" cy="13.57" r="1.81"/>
					</g>
					<g>
						<circle class="st0" cx="36.39" cy="5.23" r="1.81"/>
					</g>
				</g>
			</g>
		</g>
	</g>
</g>
</svg>
