<?xml version="1.0" encoding="UTF-8"?>
<svg width="700pt" height="700pt" version="1.1" viewBox="0 0 700 700" xmlns="http://www.w3.org/2000/svg">
 <g>
  <path d="m309.17 345.58v141.5c0 6.2539 3.3359 12.031 8.75 15.156 5.4141 3.125 12.086 3.125 17.5 0 5.4141-3.125 8.75-8.9023 8.75-15.156v-160.41c-0.015625-10.828-4.3203-21.207-11.977-28.859-7.6523-7.6562-18.031-11.961-28.859-11.977h-160.41c-6.2539 0-12.031 3.3359-15.156 8.75-3.125 5.4141-3.125 12.086 0 17.5 3.125 5.4141 8.9023 8.75 15.156 8.75h141.5l-180.13 180.13c-3.3008 3.2773-5.1602 7.7344-5.168 12.387-0.011719 4.6523 1.8359 9.1133 5.125 12.402s7.75 5.1367 12.402 5.125c4.6523-0.007812 9.1094-1.8672 12.387-5.168z"/>
  <path d="m570.96 34.293-180.13 180.13v-141.5c0-6.2539-3.3359-12.031-8.75-15.156-5.4141-3.125-12.086-3.125-17.5 0-5.4141 3.125-8.75 8.9023-8.75 15.156v160.41c0.015625 10.828 4.3203 21.207 11.977 28.859 7.6523 7.6562 18.031 11.961 28.859 11.977h160.42-0.003907c6.2539 0 12.031-3.3359 15.156-8.75 3.125-5.4141 3.125-12.086 0-17.5-3.125-5.4141-8.9023-8.75-15.156-8.75h-141.5l180.12-180.13h0.003906c4.3945-4.4258 6.0977-10.855 4.4766-16.875-1.6211-6.0234-6.3242-10.727-12.348-12.348-6.0195-1.6211-12.449 0.082032-16.875 4.4766z"/>
 </g>
</svg>
