<?xml version="1.0" encoding="utf-8"?>
<!-- Generator: Adobe Illustrator 26.3.1, SVG Export Plug-In . SVG Version: 6.00 Build 0)  -->
<svg version="1.1" id="Calque_1" xmlns="http://www.w3.org/2000/svg" xmlns:xlink="http://www.w3.org/1999/xlink" x="0px" y="0px"
	 viewBox="0 0 510.2 486.6" style="enable-background:new 0 0 510.2 486.6;" xml:space="preserve">
<style type="text/css">
	.st0{fill:#233030;}
</style>
<g>
	<g>
		<g>
			<path class="st0" d="M255.1,95l39.2,79.3l11.6,23.5l26,3.8l87.4,12.7L356,276l-18.8,18.4l4.5,25.9l15,87.1l-78.3-41.1l-23.3-12.2
				l-23.3,12.2l-78.3,41.1l15-87.1l4.5-26L154.1,276l-63.4-61.7l87.6-12.7l26-3.8l11.6-23.5L255.1,95 M255.1,0
				c-6.1,0-11.1,4.2-15,12.6l-69,139.5L17.2,174.5C5.7,176.3,0,181,0,188.6c0,4.3,2.6,9.2,7.7,14.7l111.6,108.5L92.9,465.1
				c-0.4,2.9-0.6,4.9-0.6,6.1c0,4.3,1.1,7.9,3.2,10.9s5.4,4.4,9.7,4.4c3.7,0,7.8-1.2,12.3-3.7l137.7-72.4l137.7,72.4
				c4.3,2.5,8.4,3.7,12.3,3.7c4.1,0,7.2-1.5,9.4-4.4c2.1-3,3.2-6.6,3.2-10.9c0-2.7-0.1-4.7-0.3-6.1l-26.4-153.3l111.3-108.5
				c5.3-5.3,8-10.2,8-14.7c0-7.6-5.7-12.3-17.2-14.1l-153.9-22.4l-69-139.5C266.2,4.2,261.2,0,255.1,0L255.1,0z"/>
		</g>
	</g>
</g>
</svg>
