<?xml version="1.0" encoding="utf-8"?>
<!-- Generator: Adobe Illustrator 26.3.1, SVG Export Plug-In . SVG Version: 6.00 Build 0)  -->
<svg version="1.1" id="Calque_1" xmlns="http://www.w3.org/2000/svg" xmlns:xlink="http://www.w3.org/1999/xlink" x="0px" y="0px"
	 viewBox="0 0 140 140" style="enable-background:new 0 0 140 140;" xml:space="preserve">
<style type="text/css">
	.st0{fill:#FFFFFF;}
	.st1{fill:#F0F4F2;}
	.st2{fill:#293737;}
	.st3{fill:#52746E;}
	.st4{enable-background:new    ;}
</style>
<g>
	<path class="st0" d="M120,140H20c-11,0-20-9-20-20V20C0,9,9,0,20,0h100c11,0,20,9,20,20v100C140,131,131,140,120,140z"/>
	<g>
		<circle class="st1" cx="70" cy="80.3" r="31.7"/>
		<circle class="st2" cx="70.1" cy="39.6" r="1.2"/>
		<circle class="st2" cx="51.2" cy="44.3" r="1.2"/>
		<circle class="st2" cx="36.6" cy="57.1" r="1.2"/>
		<circle class="st2" cx="29.7" cy="75.2" r="1.2"/>
		<circle class="st2" cx="32" cy="94.5" r="1.2"/>
		<circle class="st2" cx="43" cy="110.5" r="1.2"/>
		<circle class="st2" cx="60.2" cy="119.6" r="1.2"/>
		<circle class="st2" cx="79.6" cy="119.7" r="1.2"/>
		<circle class="st2" cx="96.8" cy="110.7" r="1.2"/>
		<circle class="st2" cx="107.9" cy="94.7" r="1.2"/>
		<circle class="st2" cx="110.3" cy="75.4" r="1.2"/>
		<circle class="st1" cx="103.4" cy="57.2" r="5.3"/>
		<circle class="st3" cx="103.4" cy="57.2" r="2.2"/>
		<circle class="st2" cx="88.9" cy="44.3" r="1.2"/>
	</g>
	<g>
		<g>
			<g>
				<g class="st4">
					<path class="st3" d="M21.5,19.2l-1.3,7.3h-1.8l-1.5-7.6h1l1.4,7.3l1.3-7.3h1.7l1.3,7.3l1.4-7.3h1l-1.5,7.6h-1.8L21.5,19.2z"/>
					<path class="st3" d="M27.3,18.7h1v1.1h-1V18.7z M27.3,20.9h0.9v5.5h-0.9V20.9z"/>
					<path class="st3" d="M30.1,20.9H31v0.6c0.3-0.4,0.8-0.7,1.6-0.7c1.2,0,2,0.8,2,2.1v3.5h-0.9v-3.3c0-0.9-0.4-1.4-1.3-1.4
						c-0.7,0-1.4,0.4-1.4,1.4v3.3h-0.9V20.9z"/>
					<path class="st3" d="M36,24.3v-1.1c0-1.5,0.9-2.3,2.3-2.3c0.6,0,1,0.2,1.4,0.5v-2.8h0.9v8h-0.9v-0.4c-0.3,0.3-0.8,0.5-1.4,0.5
						C36.9,26.6,36,25.7,36,24.3z M38.3,25.7c0.7,0,1.4-0.3,1.4-1.4v-1.1c0-1-0.6-1.4-1.4-1.4c-0.8,0-1.4,0.4-1.4,1.4v1.1
						C37,25.4,37.5,25.7,38.3,25.7z"/>
				</g>
			</g>
		</g>
	</g>
</g>
<g>
	<g class="st4">
		<path class="st2" d="M59.9,94.9v2.6H59v-6.8h0.9v2.5l2.8-2.5h1.2L60.1,94l3.8,3.5h-1.3L59.9,94.9z"/>
		<path class="st2" d="M64.8,92.5h0.8V93c0.3-0.4,0.7-0.6,1.4-0.6c0.7,0,1.2,0.3,1.5,0.7c0.3-0.4,0.7-0.7,1.6-0.7
			c1.1,0,1.9,0.7,1.9,1.9v3.2h-0.8v-3c0-0.8-0.4-1.3-1.2-1.3c-0.7,0-1.2,0.4-1.2,1.3v3H68v-3c0-0.8-0.4-1.3-1.2-1.3
			c-0.7,0-1.2,0.4-1.2,1.3v3h-0.8V92.5z"/>
		<path class="st2" d="M75.6,90.3h0.8l-2.7,8.5h-0.8L75.6,90.3z"/>
		<path class="st2" d="M77.4,90.3h0.8V93c0.3-0.4,0.7-0.6,1.4-0.6c1.1,0,1.8,0.7,1.8,1.9v3.2h-0.8v-3c0-0.8-0.4-1.3-1.2-1.3
			c-0.7,0-1.2,0.4-1.2,1.3v3h-0.8V90.3z"/>
	</g>
</g>
<g>
	<g class="st4">
		<path class="st2" d="M63.1,80.1c0-2.7,1.4-4.2,2.8-5c-1-0.8-2.1-2.2-2.1-4.6c0-3.3,2.5-5.4,5.5-5.4h2c2.9,0,5.5,2.1,5.5,5.4
			c0,2.3-1.1,3.8-2.1,4.6c1.4,0.8,2.8,2.3,2.8,5c0,4-2.7,6-6.2,6.1h-2C65.8,86.2,63.1,84.1,63.1,80.1z M69.4,83.9h1.8
			c2.2,0,3.8-1.3,3.8-3.8c0-2.3-1.5-3.8-3.8-3.8h-1.8c-2.2,0-3.8,1.5-3.8,3.8C65.6,82.5,67.1,83.8,69.4,83.9z M69.4,74h1.8
			c1.9,0,3.2-1.5,3.2-3.4c0-2-1.4-3.2-3.2-3.2h-1.8c-1.8,0-3.2,1.3-3.2,3.2C66.2,72.6,67.5,74,69.4,74z"/>
	</g>
</g>
</svg>
