<?xml version="1.0" encoding="utf-8"?>
<!-- Generator: Adobe Illustrator 26.3.1, SVG Export Plug-In . SVG Version: 6.00 Build 0)  -->
<svg version="1.1" id="Calque_1" xmlns="http://www.w3.org/2000/svg" xmlns:xlink="http://www.w3.org/1999/xlink" x="0px" y="0px"
	 viewBox="0 0 140 140" style="enable-background:new 0 0 140 140;" xml:space="preserve">
<style type="text/css">
	.st0{fill:#FFFFFF;}
	.st1{fill:#C7CCCB;}
	.st2{fill:none;stroke:#ECC385;stroke-width:0.8002;stroke-linecap:round;stroke-miterlimit:10;}
	.st3{fill:none;stroke:#F0F4F2;stroke-width:0.6126;stroke-miterlimit:10;}
	.st4{fill:#ECC385;}
	.st5{font-family:'N27-Regular';}
	.st6{font-size:21.2059px;}
	.st7{font-size:10.362px;}
	.st8{font-size:10.8197px;}
	.st9{fill:none;stroke:#ECC385;stroke-width:2.0553;stroke-linecap:round;stroke-miterlimit:10;}
	.st10{fill:#F0F4F2;}
	.st11{fill:#293737;}
	.st12{fill:#52746E;}
	.st13{fill:#A2C8BD;}
	.st14{fill:#446963;}
	.st15{fill:none;stroke:#FFFFFF;stroke-width:2;stroke-miterlimit:10;}
	.st16{fill:#C7CCCB;stroke:#FFFFFF;stroke-width:2;stroke-miterlimit:10;}
	.st17{fill:none;stroke:#EFBC80;stroke-width:2;stroke-miterlimit:10;}
	.st18{fill:#446963;stroke:#EFBC80;stroke-width:2;stroke-miterlimit:10;}
	.st19{fill:none;stroke:#FFFFFF;stroke-width:1.7;stroke-miterlimit:10;}
</style>
<g>
	<path class="st0" d="M120,140H20c-11,0-20-9-20-20V20C0,9,9,0,20,0h100c11,0,20,9,20,20v100C140,131,131,140,120,140z"/>
	<g>
		<text transform="matrix(1 0 0 1 26.7673 119.8129)" class="st1 st5 st6">15°</text>
	</g>
	<g>
		<text transform="matrix(1 0 0 1 70.9524 119.2944)" class="st1 st5 st7">Nuageux</text>
	</g>
	<path class="st1" d="M99.8,89.5H40.2c-0.6,0-1-0.5-1-1s0.5-1,1-1h59.5c0.6,0,1,0.5,1,1S100.3,89.5,99.8,89.5z"/>
	<path class="st1" d="M99.8,81.9c-3.9,0-5.9-0.9-7.9-1.8c-1.8-0.8-3.5-1.6-7-1.6c-3.5,0-5.2,0.8-7,1.6c-1.9,0.9-3.9,1.8-7.9,1.8
		s-5.9-0.9-7.9-1.8c-1.8-0.8-3.5-1.6-7-1.6s-5.2,0.8-7,1.6c-1.9,0.9-3.9,1.8-7.9,1.8c-0.6,0-1-0.5-1-1s0.5-1,1-1
		c3.5,0,5.2-0.8,7-1.6c1.9-0.9,3.9-1.8,7.9-1.8s5.9,0.9,7.9,1.8c1.8,0.8,3.5,1.6,7,1.6c3.5,0,5.2-0.8,7-1.6c1.9-0.9,3.9-1.8,7.9-1.8
		s5.9,0.9,7.9,1.8c1.8,0.8,3.5,1.6,7,1.6c0.6,0,1,0.5,1,1S100.3,81.9,99.8,81.9z"/>
	<path class="st1" d="M69.3,51.5c-0.6,0-1-0.5-1-1v-8.7c0-0.6,0.5-1,1-1s1,0.5,1,1v8.7C70.3,51,69.9,51.5,69.3,51.5z"/>
	<path class="st1" d="M59.7,54c-0.4,0-0.7-0.2-0.9-0.5L54.5,46c-0.3-0.5-0.1-1.1,0.4-1.4c0.5-0.3,1.1-0.1,1.4,0.4l4.3,7.5
		c0.3,0.5,0.1,1.1-0.4,1.4C60.1,54,59.9,54,59.7,54z"/>
	<path class="st1" d="M52.7,61c-0.2,0-0.4,0-0.5-0.1l-7.5-4.3c-0.5-0.3-0.7-0.9-0.4-1.4c0.3-0.5,0.9-0.7,1.4-0.4l7.5,4.3
		c0.5,0.3,0.7,0.9,0.4,1.4C53.4,60.8,53.1,61,52.7,61z"/>
	<path class="st1" d="M50.1,70.6h-8.7c-0.6,0-1-0.5-1-1s0.5-1,1-1h8.7c0.6,0,1,0.5,1,1S50.7,70.6,50.1,70.6z"/>
	<path class="st1" d="M78.9,54c-0.2,0-0.4,0-0.5-0.1c-0.5-0.3-0.7-0.9-0.4-1.4l4.3-7.5c0.3-0.5,0.9-0.7,1.4-0.4
		c0.5,0.3,0.7,0.9,0.4,1.4l-4.3,7.5C79.6,53.8,79.2,54,78.9,54z"/>
	<path class="st1" d="M85.9,61c-0.4,0-0.7-0.2-0.9-0.5c-0.3-0.5-0.1-1.1,0.4-1.4l7.5-4.3c0.5-0.3,1.1-0.1,1.4,0.4
		c0.3,0.5,0.1,1.1-0.4,1.4l-7.5,4.3C86.2,61,86.1,61,85.9,61z"/>
	<path class="st1" d="M97.2,70.6h-8.7c-0.6,0-1-0.5-1-1s0.5-1,1-1h8.7c0.6,0,1,0.5,1,1S97.7,70.6,97.2,70.6z"/>
	<g>
		<g>
			<g>
				<text transform="matrix(1 0 0 1 17.4197 26.6459)" class="st1 st5 st8">Meteo</text>
			</g>
		</g>
	</g>
</g>
</svg>
