<?xml version="1.0" encoding="utf-8"?>
<!-- Generator: Adobe Illustrator 26.3.1, SVG Export Plug-In . SVG Version: 6.00 Build 0)  -->
<svg version="1.1" id="Calque_1" xmlns="http://www.w3.org/2000/svg" xmlns:xlink="http://www.w3.org/1999/xlink" x="0px" y="0px"
	 viewBox="0 0 140 140" style="enable-background:new 0 0 140 140;" xml:space="preserve">
<style type="text/css">
	.st0{fill:#FFFFFF;}
	.st1{enable-background:new    ;}
	.st2{fill:#293737;}
	.st3{fill:none;stroke:#ECC385;stroke-width:2.0553;stroke-linecap:round;stroke-miterlimit:10;}
	.st4{fill:#52746E;}
</style>
<g>
	<path class="st0" d="M120,140H20c-11,0-20-9-20-20V20C0,9,9,0,20,0h100c11,0,20,9,20,20v100C140,131,131,140,120,140z"/>
	<g class="st1">
		<path class="st2" d="M31.7,105.5l-4.1,4.6l0-2.5l2.4-2.6h3.6v14.8h-1.8V105.5z"/>
		<path class="st2" d="M37.2,115.6h1.8c0.1,1.5,1,2.7,3,2.7c2.2,0,3-1.3,3-3.2c0-1.9-1-3.1-3.1-3.1h-4.3l0.4-7h8.1v1.7h-6.5
			l-0.2,3.7h2.8c3,0,4.6,2,4.6,4.7c0,3-1.5,4.9-4.8,4.9C38.8,120,37.3,118.1,37.2,115.6z"/>
		<path class="st2" d="M48.8,107.4c0-1.5,1.2-2.7,2.8-2.7s2.8,1.2,2.8,2.7c0,1.6-1.2,2.7-2.8,2.7S48.8,109,48.8,107.4z M51.6,108.7
			c0.8,0,1.2-0.6,1.2-1.3s-0.4-1.3-1.2-1.3s-1.2,0.6-1.2,1.3S50.8,108.7,51.6,108.7z"/>
	</g>
	<g class="st1">
		<path class="st2" d="M72,112h1.8l2.8,7v-7h0.9v7.3h-1.8l-2.7-7v7H72V112z"/>
		<path class="st2" d="M82.7,114h0.9v3.4c0,1.2-0.7,2-2.1,2c-1.4,0-2.1-0.8-2.1-2V114h0.9v3.2c0,0.9,0.4,1.4,1.3,1.4
			c0.8,0,1.2-0.5,1.2-1.4V114z"/>
		<path class="st2" d="M84.9,117.2v-1c0-1.4,0.8-2.2,2.2-2.2c0.5,0,1,0.2,1.3,0.4V114h0.9v5.3h-0.9v-0.4c-0.3,0.3-0.8,0.4-1.3,0.4
			C85.8,119.4,84.9,118.6,84.9,117.2z M87.1,118.6c0.7,0,1.3-0.3,1.3-1.4v-1c0-1-0.6-1.4-1.3-1.4c-0.8,0-1.3,0.4-1.3,1.4v1
			C85.8,118.2,86.3,118.6,87.1,118.6z"/>
		<path class="st2" d="M90.8,120h0.9c0,0.5,0.2,1,1.2,1c1,0,1.3-0.5,1.3-1.2v-0.8c-0.3,0.3-0.8,0.4-1.3,0.4c-1.3,0-2.2-0.8-2.2-2.2
			v-1c0-1.4,0.8-2.2,2.2-2.2c0.5,0,1,0.2,1.3,0.4V114H95v5.8c0,1.1-0.6,2-2.1,2C91.5,121.8,90.8,121,90.8,120z M92.8,118.6
			c0.7,0,1.3-0.4,1.3-1.4v-1c0-1.1-0.6-1.4-1.3-1.4c-0.7,0-1.3,0.3-1.3,1.4v1C91.5,118.1,92.2,118.6,92.8,118.6z"/>
		<path class="st2" d="M96.3,117.2v-1c0-1.4,0.9-2.2,2.2-2.2c1.2,0,2.1,0.7,2.2,2.2v0.8h-3.5v0.2c0,1.1,0.5,1.4,1.3,1.4
			c0.6,0,1.2-0.2,1.3-0.9h0.9c-0.1,1.1-1,1.8-2.2,1.8C97.2,119.4,96.3,118.6,96.3,117.2z M99.8,116.2L99.8,116.2
			c0-1.1-0.6-1.5-1.3-1.5c-0.8,0-1.3,0.4-1.3,1.4v0.1H99.8z"/>
		<path class="st2" d="M105.4,114h0.9v3.4c0,1.2-0.7,2-2.1,2c-1.4,0-2.1-0.8-2.1-2V114h0.9v3.2c0,0.9,0.4,1.4,1.3,1.4
			c0.8,0,1.2-0.5,1.2-1.4V114z"/>
		<path class="st2" d="M109.1,116.6l-1.7-2.6h1l1.2,2l1.2-2h1.1l-1.7,2.6l1.7,2.7h-1l-1.3-2.1l-1.3,2.1h-1L109.1,116.6z"/>
	</g>
	<line class="st3" x1="99.8" y1="88.5" x2="40.2" y2="88.5"/>
	<path class="st3" d="M99.8,80.9c-7.4,0-7.4-3.4-14.9-3.4c-7.4,0-7.4,3.4-14.9,3.4c-7.4,0-7.4-3.4-14.9-3.4s-7.4,3.4-14.9,3.4"/>
	<line class="st3" x1="69.3" y1="41.7" x2="69.3" y2="50.4"/>
	<line class="st3" x1="55.4" y1="45.5" x2="59.7" y2="53"/>
	<line class="st3" x1="45.2" y1="55.7" x2="52.7" y2="60"/>
	<line class="st3" x1="41.5" y1="69.6" x2="50.1" y2="69.6"/>
	<line class="st3" x1="83.2" y1="45.5" x2="78.9" y2="53"/>
	<line class="st3" x1="93.4" y1="55.7" x2="85.9" y2="60"/>
	<line class="st3" x1="97.2" y1="69.6" x2="88.5" y2="69.6"/>
	<g>
		<g>
			<g class="st1">
				<path class="st4" d="M19.5,19.3v7.3h-1v-7.6h1.8l2,7.3l2-7.3h1.8v7.6h-1v-7.3l-1.9,7.3h-1.8L19.5,19.3z"/>
				<path class="st4" d="M27.7,24.4v-1.1c0-1.5,0.9-2.3,2.3-2.3c1.3,0,2.2,0.7,2.3,2.3v0.9h-3.6v0.2c0,1.1,0.6,1.4,1.4,1.4
					c0.7,0,1.2-0.2,1.3-1h0.9c-0.1,1.2-1,1.8-2.2,1.8C28.6,26.7,27.7,25.9,27.7,24.4z M31.3,23.4L31.3,23.4c0-1.2-0.6-1.5-1.3-1.5
					c-0.8,0-1.4,0.4-1.4,1.5v0.1H31.3z"/>
				<path class="st4" d="M34,25.3V22h-0.8v-0.9H34v-1.2h0.9v1.2h1.4V22h-1.4v3.8h1.4v0.9h-0.8C34.4,26.6,34,26,34,25.3z"/>
				<path class="st4" d="M37.3,24.4v-1.1c0-1.5,0.9-2.3,2.3-2.3c1.3,0,2.2,0.7,2.3,2.3v0.9h-3.6v0.2c0,1.1,0.6,1.4,1.4,1.4
					c0.7,0,1.2-0.2,1.3-1h0.9c-0.1,1.2-1,1.8-2.2,1.8C38.2,26.7,37.3,25.9,37.3,24.4z M41,23.4L41,23.4c0-1.2-0.6-1.5-1.3-1.5
					c-0.8,0-1.4,0.4-1.4,1.5v0.1H41z"/>
				<path class="st4" d="M45.2,21c1.4,0,2.3,0.8,2.3,2.3v1.1c0,1.5-0.9,2.3-2.3,2.3S43,25.9,43,24.4v-1.1C43,21.9,43.9,21,45.2,21z
					 M45.2,25.9c0.8,0,1.4-0.3,1.4-1.4v-1.1c0-1-0.6-1.4-1.4-1.4c-0.8,0-1.4,0.4-1.4,1.4v1.1C43.9,25.6,44.4,25.9,45.2,25.9z"/>
			</g>
		</g>
	</g>
</g>
</svg>
