<?xml version="1.0" encoding="utf-8"?>
<!-- Generator: Adobe Illustrator 26.3.1, SVG Export Plug-In . SVG Version: 6.00 Build 0)  -->
<svg version="1.1" id="Calque_1" xmlns="http://www.w3.org/2000/svg" xmlns:xlink="http://www.w3.org/1999/xlink" x="0px" y="0px"
	 viewBox="0 0 300 140" style="enable-background:new 0 0 300 140;" xml:space="preserve">
<style type="text/css">
	.st0{fill:#A2C8BD;}
	.st1{fill:#446963;}
	.st2{enable-background:new    ;}
	.st3{fill:#293737;}
	.st4{fill:none;stroke:#FFFFFF;stroke-width:1.7;stroke-miterlimit:10;}
	.st5{fill:#FFFFFF;}
</style>
<g>
	<path class="st0" d="M300,20v100c0,11-9,20-20,20H20c-11,0-20-9-20-20V20C0,9,9,0,20,0h260C291,0,300,9,300,20z"/>
	<path class="st1" d="M300,20v100c0,11-9,20-20,20H153.8c-7.3-21.9-2.1-39.2,1.2-52.7c3.4-14.1,0.8-28.5-3.1-44.3
		c-3.8-15.1-2.1-33.5,2.7-43H280C291,0,300,9,300,20z"/>
	<g>
		<g>
			<g>
				<g class="st2">
					<path class="st3" d="M17.2,24.2h1c0.1,0.9,0.6,1.5,1.8,1.5c1.1,0,1.7-0.4,1.7-1.3c0-0.7-0.4-1.1-1.2-1.2l-1.1-0.2
						c-1.2-0.3-1.9-0.9-1.9-2c0-1.2,0.9-2.1,2.5-2.1c1.5,0,2.6,0.9,2.6,2.2h-1c0-0.8-0.6-1.4-1.6-1.4c-0.9,0-1.5,0.4-1.5,1.2
						c0,0.6,0.4,0.9,1.2,1.1l1,0.2c1.3,0.3,2,0.9,2,2.2c0,1.4-1.1,2.2-2.7,2.2C18.2,26.6,17.3,25.6,17.2,24.2z"/>
					<path class="st3" d="M27.7,20.9h0.9v3.5c0,1.3-0.8,2.1-2.2,2.1c-1.4,0-2.2-0.8-2.2-2.1v-3.5h0.9v3.3c0,0.9,0.4,1.4,1.3,1.4
						c0.9,0,1.3-0.5,1.3-1.4V20.9z"/>
					<path class="st3" d="M30.5,20.9h0.9v0.6c0.3-0.4,0.8-0.7,1.6-0.7c1.2,0,2,0.8,2,2.1v3.5h-0.9v-3.3c0-0.9-0.4-1.4-1.3-1.4
						c-0.7,0-1.4,0.4-1.4,1.4v3.3h-0.9V20.9z"/>
					<path class="st3" d="M39.1,24.2v-1.1c0-1.5,0.9-2.3,2.3-2.3c1.3,0,2.2,0.7,2.3,2h-0.9c0-0.8-0.6-1.2-1.3-1.2
						c-0.8,0-1.4,0.4-1.4,1.4v1.1c0,1.1,0.6,1.4,1.4,1.4c0.7,0,1.3-0.3,1.3-1.2h0.9c0,1.3-1,2-2.3,2C40,26.6,39.1,25.7,39.1,24.2z"
						/>
					<path class="st3" d="M49,20.9h1l-2.7,8h-1l0.8-2.5h-0.8l-1.9-5.5h1l1.7,5.3L49,20.9z"/>
					<path class="st3" d="M50.9,24.2v-1.1c0-1.5,0.9-2.3,2.3-2.3c1.3,0,2.2,0.7,2.3,2h-0.9c0-0.8-0.6-1.2-1.3-1.2
						c-0.8,0-1.4,0.4-1.4,1.4v1.1c0,1.1,0.6,1.4,1.4,1.4c0.7,0,1.3-0.3,1.3-1.2h0.9c0,1.3-1,2-2.3,2C51.8,26.6,50.9,25.7,50.9,24.2z
						"/>
					<path class="st3" d="M57,25.3v-6.9h0.9v7.1h0.9v0.9h-0.6C57.4,26.5,57,26,57,25.3z"/>
					<path class="st3" d="M59.6,24.2v-1.1c0-1.5,0.9-2.3,2.3-2.3c1.3,0,2.2,0.7,2.3,2.3V24h-3.6v0.2c0,1.1,0.6,1.4,1.4,1.4
						c0.7,0,1.2-0.2,1.3-1h0.9c-0.1,1.2-1,1.8-2.2,1.8C60.5,26.6,59.6,25.7,59.6,24.2z M63.2,23.2L63.2,23.2c0-1.2-0.6-1.5-1.3-1.5
						c-0.8,0-1.4,0.4-1.4,1.5v0.1H63.2z"/>
				</g>
			</g>
		</g>
	</g>
	<g>
		<g>
			<g class="st2">
				<path class="st3" d="M87.8,60.5h2.4c2,0,3.1,1.3,3.1,3.4v0.9c0,2.1-1.1,3.4-3.1,3.4h-2.4V60.5z M92.4,64.8v-0.9
					c0-1.4-0.6-2.5-2.2-2.5h-1.5v5.8h1.5C91.8,67.3,92.4,66.3,92.4,64.8z"/>
				<path class="st3" d="M94.6,66v-1.1c0-1.5,0.9-2.4,2.3-2.4c0.6,0,1,0.2,1.4,0.5v-0.4h0.9v5.6h-0.9v-0.4c-0.4,0.3-0.8,0.5-1.4,0.5
					C95.5,68.3,94.6,67.5,94.6,66z M96.9,67.5c0.8,0,1.4-0.3,1.4-1.5v-1.1c0-1-0.6-1.5-1.4-1.5c-0.8,0-1.4,0.4-1.4,1.5V66
					C95.5,67.1,96.1,67.5,96.9,67.5z"/>
				<path class="st3" d="M104.4,62.9l-1.1,5.3h-1.7l-1.1-5.6h1l1,5.3l1-5.3h1.7l1,5.3l1-5.3h1l-1.1,5.6h-1.7L104.4,62.9z"/>
				<path class="st3" d="M109.7,62.6h0.9v0.6c0.3-0.4,0.8-0.7,1.6-0.7c1.2,0,2.1,0.8,2.1,2.1v3.6h-0.9v-3.4c0-0.9-0.5-1.5-1.3-1.5
					c-0.7,0-1.4,0.4-1.4,1.5v3.4h-0.9V62.6z"/>
			</g>
			<g class="st2">
				<path class="st3" d="M77.9,76.6l-4.6,5.2l0-2.9L76,76h4v16.6h-2V76.6z"/>
				<path class="st3" d="M83.9,87.9c0-2.2,1.1-3.4,2.3-4.1c-0.8-0.6-1.7-1.8-1.7-3.7c0-2.7,2-4.4,4.4-4.4h1.7c2.4,0,4.4,1.7,4.4,4.4
					c0,1.9-0.9,3.1-1.7,3.7c1.1,0.6,2.3,1.9,2.3,4.1c0,3.3-2.2,4.9-5,4.9h-1.7C86.1,92.8,83.9,91.1,83.9,87.9z M89,90.9h1.4
					c1.8,0,3.1-1.1,3.1-3.1c0-1.9-1.2-3.1-3.1-3.1H89c-1.8,0-3.1,1.2-3.1,3.1C85.9,89.8,87.2,90.9,89,90.9z M89,82.9h1.4
					c1.5,0,2.6-1.2,2.6-2.8c0-1.6-1.1-2.6-2.6-2.6H89c-1.5,0-2.6,1-2.6,2.6C86.4,81.7,87.5,82.9,89,82.9z"/>
				<path class="st3" d="M98.4,81.5h2.6v2.6h-2.6V81.5z M98.4,90h2.6v2.6h-2.6V90z"/>
				<path class="st3" d="M104.3,88.7l5.4-4c2.1-1.6,2.5-2.5,2.5-4.1c0-1.6-1.2-3-3.2-3c-1.9,0-3.1,1.1-3.1,3h-2
					c0-2.9,1.9-4.9,5.1-4.9c3.3,0,5.3,2.3,5.3,4.9c0,1.9-0.7,3.6-3.2,5.4l-6.3,4.5h9.8v2h-10.4V88.7z"/>
				<path class="st3" d="M117.9,88h2c0,1.7,1.3,2.9,3.5,2.9c2.1,0,3.4-1.4,3.4-3.2c0-2-1.3-3.3-3.6-3.3h-1.2v-1.9l5.8-4.6h-9.2V76
					h9.8v3.7l-3.8,2.9c2.9,0.4,4.4,2.4,4.4,5.1c0,2.8-2,5.1-5.5,5.1C120.1,92.8,117.9,90.9,117.9,88z"/>
			</g>
		</g>
	</g>
</g>
<g>
	<g>
		<path class="st3" d="M38,93.6c-8,0-14.4-6.5-14.4-14.4S30,64.7,38,64.7s14.4,6.5,14.4,14.4S45.9,93.6,38,93.6z M38,66.7
			c-6.9,0-12.5,5.6-12.5,12.5S31.1,91.6,38,91.6S50.4,86,50.4,79.1S44.8,66.7,38,66.7z"/>
		<g>
			<g>
				<g>
					<circle class="st3" cx="37.9" cy="58.2" r="1.7"/>
				</g>
				<g>
					<circle class="st3" cx="27.5" cy="60.9" r="1.7"/>
				</g>
				<g>
					<circle class="st3" cx="19.8" cy="68.5" r="1.7"/>
				</g>
				<g>
					<circle class="st3" cx="17" cy="79" r="1.7"/>
				</g>
				<g>
					<circle class="st3" cx="19.7" cy="89.4" r="1.7"/>
				</g>
				<g>
					<circle class="st3" cx="27.4" cy="97.1" r="1.7"/>
				</g>
				<g>
					<circle class="st3" cx="37.8" cy="99.9" r="1.7"/>
				</g>
				<g>
					<circle class="st3" cx="48.2" cy="97.2" r="1.7"/>
				</g>
				<g>
					<circle class="st3" cx="55.9" cy="89.5" r="1.7"/>
				</g>
				<g>
					<circle class="st3" cx="58.8" cy="79.1" r="1.7"/>
				</g>
				<g>
					<circle class="st3" cx="56" cy="68.7" r="1.7"/>
				</g>
				<g>
					<circle class="st3" cx="48.4" cy="61" r="1.7"/>
				</g>
			</g>
		</g>
	</g>
</g>
<path class="st4" d="M208.2,85.5c-3.1,5.8-9.2,9.7-16.2,9.7c-10.1,0-18.3-8.2-18.3-18.3s8.2-18.3,18.3-18.3c7,0,13.1,3.9,16.2,9.7
	c-2.5-3.1-6.3-5-10.6-5c-7.6,0-13.7,6.1-13.7,13.7c0,7.5,6.1,13.7,13.7,13.7C201.9,90.6,205.7,88.6,208.2,85.5z"/>
<g>
	<g class="st2">
		<path class="st5" d="M238,60.5h2.4c2,0,3.1,1.3,3.1,3.4v0.9c0,2.1-1.1,3.4-3.1,3.4H238V60.5z M242.6,64.8v-0.9
			c0-1.4-0.6-2.5-2.2-2.5h-1.5v5.8h1.5C242,67.3,242.6,66.3,242.6,64.8z"/>
		<path class="st5" d="M248.7,62.6h0.9v3.6c0,1.3-0.8,2.1-2.3,2.1c-1.5,0-2.3-0.8-2.3-2.1v-3.6h0.9V66c0,0.9,0.4,1.5,1.3,1.5
			c0.9,0,1.3-0.5,1.3-1.5V62.6z"/>
		<path class="st5" d="M251,66.4h0.9c0,0.7,0.6,1.1,1.4,1.1c0.8,0,1.3-0.3,1.3-0.8c0-0.3-0.2-0.6-0.7-0.7l-1.3-0.3
			c-0.8-0.2-1.3-0.7-1.3-1.5c0-0.9,0.7-1.6,2-1.6c1.3,0,2.1,0.7,2.1,1.8h-0.9c0-0.7-0.5-1-1.2-1c-0.7,0-1.1,0.3-1.1,0.7
			c0,0.4,0.3,0.6,0.7,0.7l1.2,0.3c1,0.2,1.5,0.7,1.5,1.6c0,1-0.8,1.7-2.2,1.7C252,68.3,251.1,67.7,251,66.4z"/>
		<path class="st5" d="M258.3,65.2l3.3,2.9v0.1h-1.2l-2.3-2.1v2.1h-0.9v-8.1h0.9v4.2l2.2-1.7h1.3v0.1L258.3,65.2z"/>
	</g>
	<g class="st2">
		<path class="st5" d="M225,75.7c3.6,0,5.5,2.4,5.5,6.2v4.8c0,3.7-1.9,6.2-5.5,6.2c-3.6,0-5.5-2.4-5.5-6.2v-4.8
			C219.5,78.1,221.5,75.7,225,75.7z M225,90.9c2.5,0,3.5-1.9,3.5-4.3v-4.8c0-2.4-1-4.3-3.5-4.3c-2.5,0-3.5,1.9-3.5,4.3v4.8
			C221.5,89.1,222.5,90.9,225,90.9z M224,83.1h2.2v2.1H224V83.1z"/>
		<path class="st5" d="M239.4,75.7c3.6,0,5.5,2.4,5.5,6.2v4.8c0,3.7-1.9,6.2-5.5,6.2c-3.6,0-5.5-2.4-5.5-6.2v-4.8
			C233.9,78.1,235.8,75.7,239.4,75.7z M239.4,90.9c2.5,0,3.5-1.9,3.5-4.3v-4.8c0-2.4-1-4.3-3.5-4.3s-3.5,1.9-3.5,4.3v4.8
			C235.9,89.1,236.9,90.9,239.4,90.9z M238.4,83.1h2.2v2.1h-2.2V83.1z"/>
		<path class="st5" d="M248.1,81.5h2.6v2.6h-2.6V81.5z M248.1,90h2.6v2.6h-2.6V90z"/>
		<path class="st5" d="M261.6,88.7h-8.2v-1.9l6.4-10.8h3.8v10.8h2.2v1.9h-2.2v3.9h-2V88.7z M261.6,86.8V76.6l-6,10.2L261.6,86.8z"/>
		<path class="st5" d="M273.8,75.7c3.6,0,5.5,2.4,5.5,6.2v4.8c0,3.7-1.9,6.2-5.5,6.2c-3.6,0-5.5-2.4-5.5-6.2v-4.8
			C268.3,78.1,270.2,75.7,273.8,75.7z M273.8,90.9c2.5,0,3.5-1.9,3.5-4.3v-4.8c0-2.4-1-4.3-3.5-4.3c-2.5,0-3.5,1.9-3.5,4.3v4.8
			C270.3,89.1,271.3,90.9,273.8,90.9z M272.8,83.1h2.2v2.1h-2.2V83.1z"/>
	</g>
</g>
</svg>
