<?xml version="1.0" encoding="utf-8"?>
<!-- Generator: Adobe Illustrator 26.3.1, SVG Export Plug-In . SVG Version: 6.00 Build 0)  -->
<svg version="1.1" id="Calque_1" xmlns="http://www.w3.org/2000/svg" xmlns:xlink="http://www.w3.org/1999/xlink" x="0px" y="0px"
	 viewBox="0 0 140 140" style="enable-background:new 0 0 140 140;" xml:space="preserve">
<style type="text/css">
	.st0{fill:#FFFFFF;}
	.st1{fill:#C7CCCB;}
	.st2{fill:none;stroke:#ECC385;stroke-width:0.8002;stroke-linecap:round;stroke-miterlimit:10;}
	.st3{fill:none;stroke:#F0F4F2;stroke-width:0.6126;stroke-miterlimit:10;}
	.st4{fill:#ECC385;}
	.st5{fill:none;stroke:#ECC385;stroke-width:2.0553;stroke-linecap:round;stroke-miterlimit:10;}
	.st6{fill:#F0F4F2;}
	.st7{fill:#293737;}
	.st8{fill:#52746E;}
	.st9{font-family:'Poppins-Regular';}
	.st10{font-size:6.7181px;}
	.st11{font-size:8px;}
	.st12{font-family:'N27-Regular';}
	.st13{font-size:10.8197px;}
	.st14{fill:#A2C8BD;}
	.st15{fill:#446963;}
	.st16{fill:none;stroke:#FFFFFF;stroke-width:2;stroke-miterlimit:10;}
	.st17{fill:#C7CCCB;stroke:#FFFFFF;stroke-width:2;stroke-miterlimit:10;}
	.st18{fill:none;stroke:#EFBC80;stroke-width:2;stroke-miterlimit:10;}
	.st19{fill:#446963;stroke:#EFBC80;stroke-width:2;stroke-miterlimit:10;}
	.st20{fill:none;stroke:#FFFFFF;stroke-width:1.7;stroke-miterlimit:10;}
</style>
<g>
	<path class="st0" d="M120,140H20c-11,0-20-9-20-20V20C0,9,9,0,20,0h100c11,0,20,9,20,20v100C140,131,131,140,120,140z"/>
	<g>
		<g>
			<g>
				<text transform="matrix(1 0 0 1 16.8114 50.6319)" class="st1 st9 st10">Sat. 14 december</text>
			</g>
		</g>
	</g>
	<g>
		<text transform="matrix(1 0 0 1 16.8114 84.8819)" class="st1 st9 st10">Sun. 15 december</text>
	</g>
	<g>
		<g>
			<path class="st1" d="M106.2,87.7H86.6c-0.2,0-0.4-0.2-0.4-0.4s0.2-0.4,0.4-0.4h19.6c0.2,0,0.4,0.2,0.4,0.4S106.4,87.7,106.2,87.7
				z"/>
			<path class="st1" d="M106.2,84.7H86.6c-0.2,0-0.4-0.2-0.4-0.4s0.2-0.4,0.4-0.4h19.6c0.2,0,0.4,0.2,0.4,0.4S106.4,84.7,106.2,84.7
				z"/>
			<path class="st1" d="M103.5,81.7H86.6c-0.2,0-0.4-0.2-0.4-0.4s0.2-0.4,0.4-0.4h16.8c0.2,0,0.4,0.2,0.4,0.4S103.7,81.7,103.5,81.7
				z"/>
			<path class="st1" d="M103.4,81.7c-0.2,0-0.4-0.2-0.4-0.4s0.2-0.4,0.4-0.4c1.1,0,2.1-0.9,2.1-2.1s-0.9-2.1-2.1-2.1
				c-1.1,0-2.1,0.9-2.1,2.1c0,0.2-0.2,0.4-0.4,0.4s-0.4-0.2-0.4-0.4c0-1.6,1.3-2.9,2.9-2.9s2.9,1.3,2.9,2.9S105,81.7,103.4,81.7z"/>
			<path class="st1" d="M96.1,78.7h-9.4c-0.2,0-0.4-0.2-0.4-0.4s0.2-0.4,0.4-0.4h9.4c0.2,0,0.4,0.2,0.4,0.4S96.3,78.7,96.1,78.7z"/>
			<path class="st1" d="M96.1,78.7c-0.2,0-0.4-0.2-0.4-0.4s0.2-0.4,0.4-0.4c1.1,0,2.1-0.9,2.1-2.1c0-1.1-0.9-2.1-2.1-2.1
				c-1.1,0-2.1,0.9-2.1,2.1c0,0.2-0.2,0.4-0.4,0.4s-0.4-0.2-0.4-0.4c0-1.6,1.3-2.9,2.9-2.9s2.9,1.3,2.9,2.9S97.7,78.7,96.1,78.7z"/>
		</g>
	</g>
	<g>
		<text transform="matrix(1 0 0 1 16.8114 115.7881)" class="st1 st9 st10">Mon. 16 december</text>
	</g>
	<g>
		<g>
			<path class="st1" d="M106.2,118.6H86.6c-0.2,0-0.4-0.2-0.4-0.4s0.2-0.4,0.4-0.4h19.6c0.2,0,0.4,0.2,0.4,0.4
				S106.4,118.6,106.2,118.6z"/>
			<path class="st1" d="M106.2,115.6H86.6c-0.2,0-0.4-0.2-0.4-0.4s0.2-0.4,0.4-0.4h19.6c0.2,0,0.4,0.2,0.4,0.4
				S106.4,115.6,106.2,115.6z"/>
			<path class="st1" d="M103.5,112.6H86.6c-0.2,0-0.4-0.2-0.4-0.4s0.2-0.4,0.4-0.4h16.8c0.2,0,0.4,0.2,0.4,0.4
				S103.7,112.6,103.5,112.6z"/>
			<path class="st1" d="M103.4,112.6c-0.2,0-0.4-0.2-0.4-0.4s0.2-0.4,0.4-0.4c1.1,0,2.1-0.9,2.1-2.1c0-1.1-0.9-2.1-2.1-2.1
				c-1.1,0-2.1,0.9-2.1,2.1c0,0.2-0.2,0.4-0.4,0.4s-0.4-0.2-0.4-0.4c0-1.6,1.3-2.9,2.9-2.9s2.9,1.3,2.9,2.9S105,112.6,103.4,112.6z"
				/>
			<path class="st1" d="M96.1,109.6h-9.4c-0.2,0-0.4-0.2-0.4-0.4s0.2-0.4,0.4-0.4h9.4c0.2,0,0.4,0.2,0.4,0.4S96.3,109.6,96.1,109.6z
				"/>
			<path class="st1" d="M96.1,109.6c-0.2,0-0.4-0.2-0.4-0.4s0.2-0.4,0.4-0.4c1.1,0,2.1-0.9,2.1-2.1s-0.9-2.1-2.1-2.1
				c-1.1,0-2.1,0.9-2.1,2.1c0,0.2-0.2,0.4-0.4,0.4s-0.4-0.2-0.4-0.4c0-1.6,1.3-2.9,2.9-2.9s2.9,1.3,2.9,2.9S97.7,109.6,96.1,109.6z"
				/>
		</g>
	</g>
	<line class="st3" x1="17.9" y1="63.3" x2="124.7" y2="63.3"/>
	<line class="st3" x1="17.9" y1="96.6" x2="124.7" y2="96.6"/>
	<g>
		<g>
			<path class="st1" d="M96.7,52.7c-3.2,0-5.8-2.6-5.8-5.8s2.6-5.8,5.8-5.8s5.8,2.6,5.8,5.8S99.9,52.7,96.7,52.7z M96.7,41.9
				c-2.8,0-5,2.2-5,5s2.2,5,5,5s5-2.2,5-5S99.4,41.9,96.7,41.9z"/>
			<g>
				<g>
					<g>
						<circle class="st1" cx="96.7" cy="38.5" r="0.7"/>
					</g>
					<g>
						<circle class="st1" cx="92.5" cy="39.6" r="0.7"/>
					</g>
					<g>
						<circle class="st1" cx="89.4" cy="42.7" r="0.7"/>
					</g>
					<g>
						<circle class="st1" cx="88.3" cy="46.8" r="0.7"/>
					</g>
					<g>
						<circle class="st1" cx="89.4" cy="51" r="0.7"/>
					</g>
					<g>
						<circle class="st1" cx="92.4" cy="54.1" r="0.7"/>
					</g>
					<g>
						<circle class="st1" cx="96.6" cy="55.3" r="0.7"/>
					</g>
					<g>
						<circle class="st1" cx="100.8" cy="54.2" r="0.7"/>
					</g>
					<g>
						<circle class="st1" cx="103.9" cy="51.1" r="0.7"/>
					</g>
					<g>
						<circle class="st1" cx="105" cy="46.9" r="0.7"/>
					</g>
					<g>
						<circle class="st1" cx="103.9" cy="42.7" r="0.7"/>
					</g>
					<g>
						<circle class="st1" cx="100.9" cy="39.6" r="0.7"/>
					</g>
				</g>
			</g>
		</g>
	</g>
	<g>
		<text transform="matrix(1 0 0 1 114.9677 50.6319)" class="st1 st9 st11">15°</text>
	</g>
	<g>
		<text transform="matrix(1 0 0 1 114.9677 84.8819)" class="st1 st9 st11">18°</text>
	</g>
	<g>
		<text transform="matrix(1 0 0 1 114.9677 115.7881)" class="st1 st9 st11">20°</text>
	</g>
	<g>
		<g>
			<g>
				<text transform="matrix(1 0 0 1 17.4189 26.9268)" class="st1 st12 st13">Meteo 3 days</text>
			</g>
		</g>
	</g>
</g>
</svg>
