<?xml version="1.0" encoding="utf-8"?>
<!-- Generator: Adobe Illustrator 26.3.1, SVG Export Plug-In . SVG Version: 6.00 Build 0)  -->
<svg version="1.1" id="Calque_1" xmlns="http://www.w3.org/2000/svg" xmlns:xlink="http://www.w3.org/1999/xlink" x="0px" y="0px"
	 viewBox="0 0 300 140" style="enable-background:new 0 0 300 140;" xml:space="preserve">
<style type="text/css">
	.st0{fill:#446963;}
	.st1{enable-background:new    ;}
	.st2{fill:#FFFFFF;}
	.st3{fill:none;stroke:#EFBC80;stroke-width:2;stroke-miterlimit:10;}
	.st4{fill:#446963;stroke:#EFBC80;stroke-width:2;stroke-miterlimit:10;}
</style>
<g>
	<path class="st0" d="M280,140H20c-11,0-20-9-20-20V20C0,9,9,0,20,0h260c11,0,20,9,20,20v100C300,131,291,140,280,140z"/>
	<g>
		<g>
			<g class="st1">
				<path class="st2" d="M19.3,19.9h-2.2V19h5.4v0.9h-2.2v6.6h-1V19.9z"/>
				<path class="st2" d="M24,18.8h1v1h-1V18.8z M24,21h0.9v5.5H24V21z"/>
				<path class="st2" d="M26.4,24.3v-1.1c0-1.5,0.9-2.3,2.2-2.3c0.5,0,1,0.2,1.3,0.5v-2.8h0.9v7.9H30v-0.4c-0.3,0.3-0.8,0.5-1.3,0.5
					C27.3,26.6,26.4,25.7,26.4,24.3z M28.6,25.7c0.7,0,1.3-0.3,1.3-1.4v-1.1c0-1-0.6-1.4-1.3-1.4c-0.8,0-1.3,0.4-1.3,1.4v1.1
					C27.3,25.4,27.8,25.7,28.6,25.7z"/>
				<path class="st2" d="M32.3,24.3v-1.1c0-1.5,0.9-2.3,2.3-2.3c1.3,0,2.2,0.7,2.2,2.3v0.9h-3.6v0.2c0,1.1,0.6,1.4,1.3,1.4
					c0.7,0,1.2-0.2,1.3-1h0.9c-0.1,1.2-1,1.8-2.2,1.8C33.2,26.6,32.3,25.7,32.3,24.3z M35.9,23.3L35.9,23.3c0-1.2-0.6-1.5-1.3-1.5
					c-0.8,0-1.3,0.4-1.3,1.5v0.1H35.9z"/>
			</g>
		</g>
	</g>
	<g>
		<g class="st1">
			<path class="st2" d="M67.1,114h0.8v5.5h2.8v0.8h-3.6V114z"/>
			<path class="st2" d="M73.3,115.6c1.2,0,1.9,0.7,1.9,1.9v0.9c0,1.2-0.7,1.9-1.9,1.9s-1.9-0.7-1.9-1.9v-0.9
				C71.4,116.3,72.2,115.6,73.3,115.6z M73.3,119.7c0.7,0,1.1-0.3,1.1-1.2v-0.9c0-0.8-0.5-1.2-1.1-1.2c-0.7,0-1.1,0.4-1.1,1.2v0.9
				C72.2,119.4,72.7,119.7,73.3,119.7z"/>
			<path class="st2" d="M79.2,115.9l-0.9,4.4H77l-0.9-4.6h0.8l0.8,4.4l0.8-4.4h1.4l0.8,4.4l0.8-4.4h0.8l-0.9,4.6h-1.4L79.2,115.9z"
				/>
			<path class="st2" d="M86,119.2v-2.7h-0.7v-0.7H86v-1h0.7v1h1.1v0.7h-1.1v3.2h1.1v0.7h-0.7C86.3,120.3,86,119.8,86,119.2z"/>
			<path class="st2" d="M89.1,113.9h0.8v0.9h-0.8V113.9z M89.1,115.7h0.8v4.6h-0.8V115.7z"/>
			<path class="st2" d="M91.1,118.5v-0.9c0-1.2,0.7-1.9,1.9-1.9c0.5,0,0.8,0.1,1.1,0.4v-2.4h0.8v6.7h-0.8V120
				c-0.3,0.3-0.7,0.4-1.1,0.4C91.8,120.4,91.1,119.7,91.1,118.5z M93,119.7c0.6,0,1.1-0.3,1.1-1.2v-0.9c0-0.8-0.5-1.2-1.1-1.2
				c-0.7,0-1.1,0.4-1.1,1.2v0.9C91.8,119.4,92.3,119.7,93,119.7z"/>
			<path class="st2" d="M96,118.5v-0.9c0-1.2,0.7-1.9,1.9-1.9c1.1,0,1.9,0.6,1.9,1.9v0.7h-3v0.2c0,0.9,0.5,1.2,1.1,1.2
				c0.6,0,1-0.2,1.1-0.8h0.8c-0.1,1-0.9,1.5-1.9,1.5C96.8,120.4,96,119.7,96,118.5z M99,117.6L99,117.6c0-1-0.5-1.3-1.1-1.3
				c-0.7,0-1.1,0.3-1.1,1.2v0.1H99z"/>
		</g>
		<g class="st1">
			<path class="st2" d="M60.2,93.1l-4.6,5.2l0-2.9l2.7-2.9h4v16.6h-2V93.1z"/>
			<path class="st2" d="M66.2,104.4c0-2.2,1.1-3.4,2.3-4.1c-0.8-0.6-1.7-1.8-1.7-3.7c0-2.7,2-4.4,4.4-4.4h1.7c2.4,0,4.4,1.7,4.4,4.4
				c0,1.9-0.9,3.1-1.7,3.7c1.1,0.6,2.3,1.9,2.3,4.1c0,3.3-2.2,4.9-5,4.9h-1.7C68.4,109.4,66.2,107.7,66.2,104.4z M71.3,107.5h1.4
				c1.8,0,3.1-1.1,3.1-3.1c0-1.9-1.2-3.1-3.1-3.1h-1.4c-1.8,0-3.1,1.2-3.1,3.1C68.2,106.4,69.5,107.5,71.3,107.5z M71.3,99.5h1.4
				c1.5,0,2.6-1.2,2.6-2.8c0-1.6-1.1-2.6-2.6-2.6h-1.4c-1.5,0-2.6,1-2.6,2.6C68.7,98.3,69.8,99.5,71.3,99.5z"/>
			<path class="st2" d="M80.7,98.1h2.6v2.6h-2.6V98.1z M80.7,106.5h2.6v2.6h-2.6V106.5z"/>
			<path class="st2" d="M86.6,105.3l5.4-4c2.1-1.6,2.5-2.5,2.5-4.1c0-1.6-1.2-3-3.2-3c-1.9,0-3.1,1.1-3.1,3h-2
				c0-2.9,1.9-4.9,5.1-4.9c3.3,0,5.3,2.3,5.3,4.9c0,1.9-0.7,3.6-3.2,5.4l-6.3,4.5H97v2H86.6V105.3z"/>
			<path class="st2" d="M100.2,104.6h2c0,1.7,1.3,2.9,3.5,2.9c2.1,0,3.4-1.4,3.4-3.2c0-2-1.3-3.3-3.6-3.3h-1.2v-1.9l5.8-4.6h-9.2
				v-1.9h9.8v3.7l-3.8,2.9c2.9,0.4,4.4,2.4,4.4,5.1c0,2.8-2,5.1-5.5,5.1C102.4,109.4,100.2,107.5,100.2,104.6z"/>
		</g>
	</g>
	<g>
		<g class="st1">
			<path class="st2" d="M201,117.5h-3v2.9h-0.8V114h0.8v2.7h3V114h0.8v6.3H201V117.5z"/>
			<path class="st2" d="M203.5,113.9h0.8v0.9h-0.8V113.9z M203.5,115.7h0.8v4.6h-0.8V115.7z"/>
			<path class="st2" d="M205.6,120.9h0.8c0,0.4,0.2,0.9,1,0.9c0.9,0,1.1-0.5,1.1-1.1V120c-0.3,0.3-0.7,0.4-1.1,0.4
				c-1.2,0-1.9-0.7-1.9-1.9v-0.9c0-1.2,0.7-1.9,1.9-1.9c0.5,0,0.8,0.1,1.1,0.4v-0.3h0.8v5c0,1-0.5,1.7-1.9,1.7
				C206.2,122.5,205.6,121.8,205.6,120.9z M207.4,119.7c0.6,0,1.1-0.4,1.1-1.2v-0.9c0-0.9-0.5-1.2-1.1-1.2c-0.6,0-1.1,0.3-1.1,1.2
				v0.9C206.2,119.3,206.8,119.7,207.4,119.7z"/>
			<path class="st2" d="M210.8,113.6h0.8v2.5c0.3-0.4,0.7-0.5,1.3-0.5c1,0,1.7,0.7,1.7,1.7v2.9h-0.8v-2.8c0-0.8-0.4-1.2-1.1-1.2
				c-0.6,0-1.1,0.3-1.1,1.2v2.8h-0.8V113.6z"/>
			<path class="st2" d="M218.6,119.2v-2.7h-0.7v-0.7h0.7v-1h0.7v1h1.1v0.7h-1.1v3.2h1.1v0.7h-0.7
				C218.9,120.3,218.6,119.8,218.6,119.2z"/>
			<path class="st2" d="M221.6,113.9h0.8v0.9h-0.8V113.9z M221.7,115.7h0.8v4.6h-0.8V115.7z"/>
			<path class="st2" d="M223.6,118.5v-0.9c0-1.2,0.7-1.9,1.9-1.9c0.5,0,0.8,0.1,1.1,0.4v-2.4h0.8v6.7h-0.8V120
				c-0.3,0.3-0.7,0.4-1.1,0.4C224.4,120.4,223.6,119.7,223.6,118.5z M225.5,119.7c0.6,0,1.1-0.3,1.1-1.2v-0.9c0-0.8-0.5-1.2-1.1-1.2
				c-0.7,0-1.1,0.4-1.1,1.2v0.9C224.4,119.4,224.9,119.7,225.5,119.7z"/>
			<path class="st2" d="M228.6,118.5v-0.9c0-1.2,0.7-1.9,1.9-1.9c1.1,0,1.9,0.6,1.9,1.9v0.7h-3v0.2c0,0.9,0.5,1.2,1.1,1.2
				c0.6,0,1-0.2,1.1-0.8h0.8c-0.1,1-0.9,1.5-1.9,1.5C229.3,120.4,228.6,119.7,228.6,118.5z M231.6,117.6L231.6,117.6
				c0-1-0.5-1.3-1.1-1.3c-0.7,0-1.1,0.3-1.1,1.2v0.1H231.6z"/>
		</g>
		<g class="st1">
			<path class="st2" d="M190.3,92.2c3.6,0,5.5,2.4,5.5,6.2v4.8c0,3.7-1.9,6.2-5.5,6.2c-3.6,0-5.5-2.4-5.5-6.2v-4.8
				C184.8,94.7,186.8,92.2,190.3,92.2z M190.3,107.5c2.5,0,3.5-1.9,3.5-4.3v-4.8c0-2.4-1-4.3-3.5-4.3s-3.5,1.9-3.5,4.3v4.8
				C186.9,105.6,187.8,107.5,190.3,107.5z M189.3,99.7h2.2v2.1h-2.2V99.7z"/>
			<path class="st2" d="M204.7,92.2c3.6,0,5.5,2.4,5.5,6.2v4.8c0,3.7-1.9,6.2-5.5,6.2c-3.6,0-5.5-2.4-5.5-6.2v-4.8
				C199.2,94.7,201.1,92.2,204.7,92.2z M204.7,107.5c2.5,0,3.5-1.9,3.5-4.3v-4.8c0-2.4-1-4.3-3.5-4.3c-2.5,0-3.5,1.9-3.5,4.3v4.8
				C201.2,105.6,202.2,107.5,204.7,107.5z M203.7,99.7h2.2v2.1h-2.2V99.7z"/>
			<path class="st2" d="M213.4,98.1h2.6v2.6h-2.6V98.1z M213.4,106.5h2.6v2.6h-2.6V106.5z"/>
			<path class="st2" d="M226.9,105.2h-8.2v-1.9l6.4-10.8h3.8v10.8h2.2v1.9h-2.2v3.9h-2V105.2z M226.9,103.4V93.1l-6,10.2
				L226.9,103.4z"/>
			<path class="st2" d="M239.1,92.2c3.6,0,5.5,2.4,5.5,6.2v4.8c0,3.7-1.9,6.2-5.5,6.2c-3.6,0-5.5-2.4-5.5-6.2v-4.8
				C233.6,94.7,235.5,92.2,239.1,92.2z M239.1,107.5c2.5,0,3.5-1.9,3.5-4.3v-4.8c0-2.4-1-4.3-3.5-4.3s-3.5,1.9-3.5,4.3v4.8
				C235.6,105.6,236.6,107.5,239.1,107.5z M238.1,99.7h2.2v2.1h-2.2V99.7z"/>
		</g>
	</g>
</g>
<path class="st3" d="M17.4,74.7c36.5,7.9,68.8,1.7,95.7-15.3s53.3-26.5,89.5-21.5c36,5,62.6,32.7,85.8,37.3"/>
<circle class="st4" cx="121.5" cy="54" r="7.6"/>
</svg>
