<?xml version="1.0" encoding="utf-8"?>
<!-- Generator: Adobe Illustrator 26.3.1, SVG Export Plug-In . SVG Version: 6.00 Build 0)  -->
<svg version="1.1" id="Calque_1" xmlns="http://www.w3.org/2000/svg" xmlns:xlink="http://www.w3.org/1999/xlink" x="0px" y="0px"
	 viewBox="0 0 140 140" style="enable-background:new 0 0 140 140;" xml:space="preserve">
<style type="text/css">
	.st0{fill:#FFFFFF;}
	.st1{fill:#C7CCCB;}
	.st2{font-family:'N27-Regular';}
	.st3{font-size:9.7228px;}
	.st4{font-size:29.1957px;}
	.st5{font-size:10.7665px;}
	.st6{fill:none;stroke:#ECC385;stroke-width:0.8002;stroke-linecap:round;stroke-miterlimit:10;}
	.st7{fill:none;stroke:#F0F4F2;stroke-width:0.6126;stroke-miterlimit:10;}
	.st8{fill:#ECC385;}
	.st9{fill:none;stroke:#ECC385;stroke-width:2.0553;stroke-linecap:round;stroke-miterlimit:10;}
	.st10{fill:#F0F4F2;}
	.st11{fill:#293737;}
	.st12{fill:#52746E;}
	.st13{fill:#A2C8BD;}
	.st14{fill:#446963;}
	.st15{fill:none;stroke:#FFFFFF;stroke-width:2;stroke-miterlimit:10;}
	.st16{fill:#C7CCCB;stroke:#FFFFFF;stroke-width:2;stroke-miterlimit:10;}
	.st17{fill:none;stroke:#EFBC80;stroke-width:2;stroke-miterlimit:10;}
	.st18{fill:#446963;stroke:#EFBC80;stroke-width:2;stroke-miterlimit:10;}
	.st19{fill:none;stroke:#FFFFFF;stroke-width:1.7;stroke-miterlimit:10;}
</style>
<g>
	<path class="st0" d="M120,140H20c-11,0-20-9-20-20V20C0,9,9,0,20,0h100c11,0,20,9,20,20v100C140,131,131,140,120,140z"/>
	<g>
		<g>
			<g>
				<path class="st1" d="M70,49.6c16.9,0,30.7,13.8,30.7,30.7S87,111,70,111S39.4,97.2,39.4,80.3S53.1,49.6,70,49.6 M70,48.6
					c-17.5,0-31.7,14.2-31.7,31.7C38.4,97.8,52.5,112,70,112s31.7-14.2,31.7-31.7C101.7,62.8,87.5,48.6,70,48.6L70,48.6z"/>
			</g>
			<text transform="matrix(1 0 0 1 55.594 97.4659)" class="st1 st2 st3"> Km/h</text>
			<text transform="matrix(1 0 0 1 61.4632 85.9209)" class="st1 st2 st4">8</text>
			<g>
				<circle class="st1" cx="70.1" cy="39.6" r="1.2"/>
			</g>
			<g>
				<circle class="st1" cx="51.2" cy="44.3" r="1.2"/>
			</g>
			<g>
				<circle class="st1" cx="36.6" cy="57.1" r="1.2"/>
			</g>
			<g>
				<circle class="st1" cx="29.7" cy="75.2" r="1.2"/>
			</g>
			<g>
				<circle class="st1" cx="32" cy="94.5" r="1.2"/>
			</g>
			<g>
				<circle class="st1" cx="43" cy="110.5" r="1.2"/>
			</g>
			<g>
				<circle class="st1" cx="60.2" cy="119.6" r="1.2"/>
			</g>
			<g>
				<circle class="st1" cx="79.6" cy="119.7" r="1.2"/>
			</g>
			<g>
				<circle class="st1" cx="96.8" cy="110.7" r="1.2"/>
			</g>
			<g>
				<circle class="st1" cx="107.9" cy="94.7" r="1.2"/>
			</g>
			<g>
				<circle class="st1" cx="110.3" cy="75.4" r="1.2"/>
			</g>
			<circle class="st1" cx="103.4" cy="57.2" r="5.3"/>
			<circle class="st0" cx="103.4" cy="57.2" r="2.2"/>
			<g>
				<circle class="st1" cx="88.9" cy="44.3" r="1.2"/>
			</g>
		</g>
	</g>
	<g>
		<g>
			<text transform="matrix(1 0 0 1 16.5926 26.4756)" class="st1 st2 st5">Wind</text>
		</g>
	</g>
</g>
</svg>
