<?xml version="1.0" encoding="utf-8"?>
<!-- Generator: Adobe Illustrator 26.3.1, SVG Export Plug-In . SVG Version: 6.00 Build 0)  -->
<svg version="1.1" id="Calque_1" xmlns="http://www.w3.org/2000/svg" xmlns:xlink="http://www.w3.org/1999/xlink" x="0px" y="0px"
	 viewBox="0 0 140 140" style="enable-background:new 0 0 140 140;" xml:space="preserve">
<style type="text/css">
	.st0{fill:#FFFFFF;}
	.st1{fill:#C7CCCB;}
	.st2{fill:#293737;}
	.st3{font-family:'Poppins-Regular';}
	.st4{font-size:6.7181px;}
	.st5{fill:none;stroke:#ECC385;stroke-width:0.8002;stroke-linecap:round;stroke-miterlimit:10;}
	.st6{fill:none;stroke:#F0F4F2;stroke-width:0.6126;stroke-miterlimit:10;}
	.st7{fill:#ECC385;}
	.st8{font-size:8px;}
	.st9{fill:#52746E;}
	.st10{font-family:'N27-Regular';}
	.st11{font-size:10.8197px;}
	.st12{fill:none;stroke:#ECC385;stroke-width:2.0553;stroke-linecap:round;stroke-miterlimit:10;}
	.st13{fill:#F0F4F2;}
	.st14{fill:#A2C8BD;}
	.st15{fill:#446963;}
	.st16{fill:none;stroke:#FFFFFF;stroke-width:2;stroke-miterlimit:10;}
	.st17{fill:#C7CCCB;stroke:#FFFFFF;stroke-width:2;stroke-miterlimit:10;}
	.st18{fill:none;stroke:#EFBC80;stroke-width:2;stroke-miterlimit:10;}
	.st19{fill:#446963;stroke:#EFBC80;stroke-width:2;stroke-miterlimit:10;}
	.st20{fill:none;stroke:#FFFFFF;stroke-width:1.7;stroke-miterlimit:10;}
</style>
<g>
	<path class="st0" d="M120,140H20c-11,0-20-9-20-20V20C0,9,9,0,20,0h100c11,0,20,9,20,20v100C140,131,131,140,120,140z"/>
	<g>
		<g>
			<g>
				<text transform="matrix(1 0 0 1 16.8114 50.6319)" class="st2 st3 st4">Sat. 14 december</text>
			</g>
		</g>
	</g>
	<g>
		<text transform="matrix(1 0 0 1 16.8114 84.8819)" class="st2 st3 st4">Sun. 15 december</text>
	</g>
	<g>
		<g>
			<line class="st5" x1="106.2" y1="87.3" x2="86.6" y2="87.3"/>
			<line class="st5" x1="106.2" y1="84.3" x2="86.6" y2="84.3"/>
			<line class="st5" x1="103.5" y1="81.3" x2="86.6" y2="81.3"/>
			<path class="st5" d="M103.4,81.3c1.4,0,2.5-1.1,2.5-2.5s-1.1-2.5-2.5-2.5s-2.5,1.1-2.5,2.5"/>
			<line class="st5" x1="96.1" y1="78.3" x2="86.6" y2="78.3"/>
			<path class="st5" d="M96.1,78.3c1.4,0,2.5-1.1,2.5-2.5s-1.1-2.5-2.5-2.5s-2.5,1.1-2.5,2.5"/>
		</g>
	</g>
	<g>
		<text transform="matrix(1 0 0 1 16.8114 115.7881)" class="st2 st3 st4">Mon. 16 december</text>
	</g>
	<g>
		<g>
			<g>
				<line class="st5" x1="106.2" y1="118.2" x2="86.6" y2="118.2"/>
			</g>
			<g>
				<line class="st5" x1="106.2" y1="115.2" x2="86.6" y2="115.2"/>
			</g>
			<g>
				<line class="st5" x1="103.5" y1="112.2" x2="86.6" y2="112.2"/>
			</g>
			<g>
				<path class="st5" d="M103.4,112.2c1.4,0,2.5-1.1,2.5-2.5c0-1.4-1.1-2.5-2.5-2.5s-2.5,1.1-2.5,2.5"/>
			</g>
			<g>
				<line class="st5" x1="96.1" y1="109.2" x2="86.6" y2="109.2"/>
			</g>
			<g>
				<path class="st5" d="M96.1,109.2c1.4,0,2.5-1.1,2.5-2.5c0-1.4-1.1-2.5-2.5-2.5s-2.5,1.1-2.5,2.5"/>
			</g>
		</g>
	</g>
	<line class="st6" x1="17.9" y1="63.3" x2="124.7" y2="63.3"/>
	<line class="st6" x1="17.9" y1="96.6" x2="124.7" y2="96.6"/>
	<g>
		<circle class="st5" cx="96.7" cy="46.9" r="5.4"/>
		<g>
			<g>
				<g>
					<circle class="st7" cx="96.7" cy="38.5" r="0.7"/>
				</g>
				<g>
					<circle class="st7" cx="92.5" cy="39.6" r="0.7"/>
				</g>
				<g>
					<circle class="st7" cx="89.4" cy="42.7" r="0.7"/>
				</g>
				<g>
					<circle class="st7" cx="88.3" cy="46.8" r="0.7"/>
				</g>
				<g>
					<circle class="st7" cx="89.4" cy="51" r="0.7"/>
				</g>
				<g>
					<circle class="st7" cx="92.4" cy="54.1" r="0.7"/>
				</g>
				<g>
					<circle class="st7" cx="96.6" cy="55.3" r="0.7"/>
				</g>
				<g>
					<circle class="st7" cx="100.8" cy="54.2" r="0.7"/>
				</g>
				<g>
					<circle class="st7" cx="103.9" cy="51.1" r="0.7"/>
				</g>
				<g>
					<circle class="st7" cx="105" cy="46.9" r="0.7"/>
				</g>
				<g>
					<circle class="st7" cx="103.9" cy="42.7" r="0.7"/>
				</g>
				<g>
					<circle class="st7" cx="100.9" cy="39.6" r="0.7"/>
				</g>
			</g>
		</g>
	</g>
	<g>
		<text transform="matrix(1 0 0 1 114.9677 50.6319)" class="st2 st3 st8">15°</text>
	</g>
	<g>
		<text transform="matrix(1 0 0 1 114.9677 84.8819)" class="st2 st3 st8">18°</text>
	</g>
	<g>
		<text transform="matrix(1 0 0 1 114.9677 115.7881)" class="st2 st3 st8">20°</text>
	</g>
	<g>
		<g>
			<text transform="matrix(1 0 0 1 17.4189 26.9268)" class="st9 st10 st11">Meteo 3 days</text>
		</g>
	</g>
</g>
</svg>
