<?xml version="1.0" encoding="utf-8"?>
<!-- Generator: Adobe Illustrator 26.3.1, SVG Export Plug-In . SVG Version: 6.00 Build 0)  -->
<svg version="1.1" id="Calque_1" xmlns="http://www.w3.org/2000/svg" xmlns:xlink="http://www.w3.org/1999/xlink" x="0px" y="0px"
	 viewBox="0 0 140 140" style="enable-background:new 0 0 140 140;" xml:space="preserve">
<style type="text/css">
	.st0{fill:#FFFFFF;}
	.st1{fill:#C7CCCB;}
	.st2{fill:none;stroke:#ECC385;stroke-width:0.8002;stroke-linecap:round;stroke-miterlimit:10;}
	.st3{fill:none;stroke:#F0F4F2;stroke-width:0.6126;stroke-miterlimit:10;}
	.st4{fill:#ECC385;}
	.st5{fill:#293737;}
	.st6{font-family:'N27-Regular';}
	.st7{font-size:21.2059px;}
	.st8{font-size:10.362px;}
	.st9{fill:none;stroke:#ECC385;stroke-width:2.0553;stroke-linecap:round;stroke-miterlimit:10;}
	.st10{fill:#52746E;}
	.st11{font-size:10.8197px;}
	.st12{fill:#F0F4F2;}
	.st13{fill:#A2C8BD;}
	.st14{fill:#446963;}
	.st15{fill:none;stroke:#FFFFFF;stroke-width:2;stroke-miterlimit:10;}
	.st16{fill:#C7CCCB;stroke:#FFFFFF;stroke-width:2;stroke-miterlimit:10;}
	.st17{fill:none;stroke:#EFBC80;stroke-width:2;stroke-miterlimit:10;}
	.st18{fill:#446963;stroke:#EFBC80;stroke-width:2;stroke-miterlimit:10;}
	.st19{fill:none;stroke:#FFFFFF;stroke-width:1.7;stroke-miterlimit:10;}
</style>
<g>
	<path class="st0" d="M120,140H20c-11,0-20-9-20-20V20C0,9,9,0,20,0h100c11,0,20,9,20,20v100C140,131,131,140,120,140z"/>
	<text transform="matrix(1 0 0 1 26.7673 119.8129)" class="st5 st6 st7">15°</text>
	<text transform="matrix(1 0 0 1 70.9524 119.2944)" class="st5 st6 st8">Nuageux</text>
	<line class="st9" x1="99.8" y1="88.5" x2="40.2" y2="88.5"/>
	<path class="st9" d="M99.8,80.9c-7.4,0-7.4-3.4-14.9-3.4c-7.4,0-7.4,3.4-14.9,3.4c-7.4,0-7.4-3.4-14.9-3.4s-7.4,3.4-14.9,3.4"/>
	<line class="st9" x1="69.3" y1="41.7" x2="69.3" y2="50.4"/>
	<line class="st9" x1="55.4" y1="45.5" x2="59.7" y2="53"/>
	<line class="st9" x1="45.2" y1="55.7" x2="52.7" y2="60"/>
	<line class="st9" x1="41.5" y1="69.6" x2="50.1" y2="69.6"/>
	<line class="st9" x1="83.2" y1="45.5" x2="78.9" y2="53"/>
	<line class="st9" x1="93.4" y1="55.7" x2="85.9" y2="60"/>
	<line class="st9" x1="97.2" y1="69.6" x2="88.5" y2="69.6"/>
	<g>
		<g>
			<text transform="matrix(1 0 0 1 17.4197 26.6459)" class="st10 st6 st11">Meteo</text>
		</g>
	</g>
</g>
</svg>
