<?xml version="1.0" encoding="utf-8"?>
<!-- Generator: Adobe Illustrator 26.3.1, SVG Export Plug-In . SVG Version: 6.00 Build 0)  -->
<svg version="1.1" id="Calque_1" xmlns="http://www.w3.org/2000/svg" xmlns:xlink="http://www.w3.org/1999/xlink" x="0px" y="0px"
	 viewBox="0 0 140 140" style="enable-background:new 0 0 140 140;" xml:space="preserve">
<style type="text/css">
	.st0{fill:#FFFFFF;}
	.st1{fill:#C7CCCB;}
	.st2{fill:none;stroke:#ECC385;stroke-width:0.8002;stroke-linecap:round;stroke-miterlimit:10;}
	.st3{fill:none;stroke:#F0F4F2;stroke-width:0.6126;stroke-miterlimit:10;}
	.st4{fill:#ECC385;}
	.st5{fill:none;stroke:#ECC385;stroke-width:2.0553;stroke-linecap:round;stroke-miterlimit:10;}
	.st6{fill:#F0F4F2;}
	.st7{fill:#293737;}
	.st8{font-family:'N27-Regular';}
	.st9{font-size:9.7228px;}
	.st10{font-size:29.1957px;}
	.st11{fill:#52746E;}
	.st12{font-size:10.8197px;}
	.st13{fill:#A2C8BD;}
	.st14{fill:#446963;}
	.st15{fill:none;stroke:#FFFFFF;stroke-width:2;stroke-miterlimit:10;}
	.st16{fill:#C7CCCB;stroke:#FFFFFF;stroke-width:2;stroke-miterlimit:10;}
	.st17{fill:none;stroke:#EFBC80;stroke-width:2;stroke-miterlimit:10;}
	.st18{fill:#446963;stroke:#EFBC80;stroke-width:2;stroke-miterlimit:10;}
	.st19{fill:none;stroke:#FFFFFF;stroke-width:1.7;stroke-miterlimit:10;}
</style>
<g>
	<path class="st0" d="M120,140H20c-11,0-20-9-20-20V20C0,9,9,0,20,0h100c11,0,20,9,20,20v100C140,131,131,140,120,140z"/>
	<g>
		<circle class="st6" cx="70" cy="80.3" r="31.7"/>
		<g>
			<text transform="matrix(1 0 0 1 55.2655 97.4659)" class="st7 st8 st9"> Km/h</text>
		</g>
		<g>
			<text transform="matrix(1 0 0 1 55.5873 85.921)" class="st7 st8 st10">16</text>
		</g>
		<circle class="st7" cx="70.1" cy="39.6" r="1.2"/>
		<circle class="st7" cx="51.2" cy="44.3" r="1.2"/>
		<circle class="st7" cx="36.6" cy="57.1" r="1.2"/>
		<circle class="st7" cx="29.7" cy="75.2" r="1.2"/>
		<circle class="st7" cx="32" cy="94.5" r="1.2"/>
		<circle class="st7" cx="43" cy="110.5" r="1.2"/>
		<circle class="st7" cx="60.2" cy="119.6" r="1.2"/>
		<circle class="st7" cx="79.6" cy="119.7" r="1.2"/>
		<circle class="st7" cx="96.8" cy="110.7" r="1.2"/>
		<circle class="st7" cx="107.9" cy="94.7" r="1.2"/>
		<circle class="st7" cx="110.3" cy="75.4" r="1.2"/>
		<circle class="st6" cx="103.4" cy="57.2" r="5.3"/>
		<circle class="st11" cx="103.4" cy="57.2" r="2.2"/>
		<circle class="st7" cx="88.9" cy="44.3" r="1.2"/>
	</g>
	<g>
		<g>
			<g>
				<text transform="matrix(1 0 0 1 16.5924 26.4757)" class="st11 st8 st12">Wind</text>
			</g>
		</g>
	</g>
</g>
</svg>
