<?xml version="1.0" encoding="utf-8"?>
<!-- Generator: Adobe Illustrator 26.3.1, SVG Export Plug-In . SVG Version: 6.00 Build 0)  -->
<svg version="1.1" id="Calque_1" xmlns="http://www.w3.org/2000/svg" xmlns:xlink="http://www.w3.org/1999/xlink" x="0px" y="0px"
	 viewBox="0 0 140 140" style="enable-background:new 0 0 140 140;" xml:space="preserve">
<style type="text/css">
	.st0{fill:#FFFFFF;}
	.st1{enable-background:new    ;}
	.st2{fill:#293737;}
	.st3{fill:none;stroke:#ECC385;stroke-width:0.8002;stroke-linecap:round;stroke-miterlimit:10;}
	.st4{fill:none;stroke:#F0F4F2;stroke-width:0.6126;stroke-miterlimit:10;}
	.st5{fill:#ECC385;}
	.st6{fill:#52746E;}
</style>
<g>
	<path class="st0" d="M120,140H20c-11,0-20-9-20-20V20C0,9,9,0,20,0h100c11,0,20,9,20,20v100C140,131,131,140,120,140z"/>
	<g>
		<g>
			<g>
				<g class="st1">
					<path class="st2" d="M18,50.5c-0.2-0.1-0.4-0.3-0.6-0.5c-0.1-0.2-0.2-0.4-0.2-0.7h0.7c0,0.2,0.1,0.4,0.3,0.6s0.4,0.2,0.7,0.2
						c0.3,0,0.5-0.1,0.7-0.2s0.3-0.3,0.3-0.6c0-0.2,0-0.3-0.1-0.4c-0.1-0.1-0.2-0.2-0.4-0.3s-0.3-0.1-0.6-0.2
						c-0.3-0.1-0.6-0.2-0.7-0.2c-0.2-0.1-0.3-0.2-0.5-0.4c-0.1-0.2-0.2-0.4-0.2-0.7c0-0.3,0.1-0.5,0.2-0.7s0.3-0.3,0.5-0.5
						c0.2-0.1,0.5-0.2,0.8-0.2c0.4,0,0.8,0.1,1.1,0.3c0.3,0.2,0.4,0.5,0.5,0.9h-0.7c0-0.2-0.1-0.3-0.3-0.5s-0.4-0.2-0.7-0.2
						c-0.3,0-0.5,0.1-0.6,0.2c-0.2,0.1-0.2,0.3-0.2,0.6c0,0.2,0,0.3,0.1,0.4c0.1,0.1,0.2,0.2,0.4,0.2s0.3,0.1,0.6,0.2
						c0.3,0.1,0.6,0.2,0.7,0.3c0.2,0.1,0.3,0.2,0.5,0.4c0.1,0.2,0.2,0.4,0.2,0.7c0,0.2-0.1,0.4-0.2,0.6c-0.1,0.2-0.3,0.4-0.5,0.5
						c-0.2,0.1-0.5,0.2-0.8,0.2C18.5,50.7,18.2,50.6,18,50.5z"/>
					<path class="st2" d="M21.3,47.8c0.2-0.3,0.4-0.5,0.6-0.7c0.3-0.2,0.6-0.2,0.9-0.2c0.3,0,0.6,0.1,0.8,0.2
						c0.2,0.1,0.4,0.3,0.5,0.5V47h0.6v3.7h-0.6v-0.7c-0.1,0.2-0.3,0.4-0.5,0.5c-0.2,0.1-0.5,0.2-0.8,0.2c-0.3,0-0.6-0.1-0.9-0.2
						s-0.5-0.4-0.6-0.7c-0.2-0.3-0.2-0.6-0.2-1C21,48.4,21.1,48.1,21.3,47.8z M24,48.1c-0.1-0.2-0.3-0.4-0.5-0.5
						c-0.2-0.1-0.4-0.2-0.6-0.2c-0.2,0-0.4,0.1-0.6,0.2s-0.3,0.3-0.5,0.5s-0.2,0.4-0.2,0.7c0,0.3,0.1,0.5,0.2,0.7
						c0.1,0.2,0.3,0.4,0.5,0.5s0.4,0.2,0.6,0.2c0.2,0,0.4-0.1,0.6-0.2s0.3-0.3,0.5-0.5c0.1-0.2,0.2-0.5,0.2-0.7
						C24.2,48.5,24.1,48.3,24,48.1z"/>
					<path class="st2" d="M26.6,47.5v2.2c0,0.2,0,0.3,0.1,0.4c0.1,0.1,0.2,0.1,0.4,0.1h0.5v0.5H27c-0.3,0-0.6-0.1-0.8-0.2
						c-0.2-0.2-0.3-0.4-0.3-0.8v-2.2h-0.5V47h0.5V46h0.6V47h1v0.5H26.6z"/>
					<path class="st2" d="M28.2,50.6c-0.1-0.1-0.1-0.2-0.1-0.3s0-0.2,0.1-0.3c0.1-0.1,0.2-0.1,0.3-0.1c0.1,0,0.2,0,0.3,0.1
						c0.1,0.1,0.1,0.2,0.1,0.3s0,0.2-0.1,0.3c-0.1,0.1-0.2,0.1-0.3,0.1C28.3,50.7,28.2,50.6,28.2,50.6z"/>
					<path class="st2" d="M31.2,46.3v-0.6h1.3v4.9h-0.6v-4.3H31.2z"/>
					<path class="st2" d="M33.4,49.5v-0.5l2.4-3.3h0.7V49h0.7v0.5h-0.7v1.1h-0.6v-1.1H33.4z M35.9,46.5L34.1,49h1.8V46.5z"/>
					<path class="st2" d="M39.6,47.8c0.2-0.3,0.4-0.5,0.6-0.7c0.3-0.2,0.6-0.2,0.9-0.2c0.3,0,0.6,0.1,0.8,0.2
						c0.2,0.1,0.4,0.3,0.6,0.5v-1.9h0.6v5h-0.6v-0.7c-0.1,0.2-0.3,0.4-0.5,0.5c-0.2,0.1-0.5,0.2-0.8,0.2c-0.3,0-0.6-0.1-0.9-0.2
						c-0.3-0.2-0.5-0.4-0.6-0.7c-0.2-0.3-0.2-0.6-0.2-1C39.4,48.4,39.5,48.1,39.6,47.8z M42.4,48.1c-0.1-0.2-0.3-0.4-0.5-0.5
						c-0.2-0.1-0.4-0.2-0.6-0.2c-0.2,0-0.4,0.1-0.6,0.2s-0.3,0.3-0.5,0.5S40,48.5,40,48.8c0,0.3,0.1,0.5,0.2,0.7
						c0.1,0.2,0.3,0.4,0.5,0.5s0.4,0.2,0.6,0.2c0.2,0,0.4-0.1,0.6-0.2s0.3-0.3,0.5-0.5c0.1-0.2,0.2-0.5,0.2-0.7
						C42.5,48.5,42.5,48.3,42.4,48.1z"/>
					<path class="st2" d="M47.5,49h-2.9c0,0.4,0.1,0.6,0.4,0.8c0.2,0.2,0.5,0.3,0.8,0.3c0.3,0,0.5-0.1,0.7-0.2
						c0.2-0.1,0.3-0.3,0.4-0.5h0.7c-0.1,0.4-0.3,0.6-0.6,0.9c-0.3,0.2-0.7,0.3-1.1,0.3c-0.3,0-0.7-0.1-0.9-0.2
						c-0.3-0.2-0.5-0.4-0.6-0.7c-0.2-0.3-0.2-0.6-0.2-1s0.1-0.7,0.2-1c0.2-0.3,0.4-0.5,0.6-0.7c0.3-0.2,0.6-0.2,1-0.2
						c0.3,0,0.7,0.1,0.9,0.2s0.5,0.4,0.6,0.6c0.1,0.3,0.2,0.6,0.2,0.9C47.5,48.8,47.5,48.9,47.5,49z M46.7,47.9
						c-0.1-0.2-0.2-0.3-0.4-0.4s-0.4-0.1-0.6-0.1c-0.3,0-0.6,0.1-0.8,0.3c-0.2,0.2-0.3,0.5-0.4,0.8h2.3
						C46.9,48.3,46.9,48.1,46.7,47.9z"/>
					<path class="st2" d="M48.3,47.8c0.2-0.3,0.4-0.5,0.6-0.7c0.3-0.2,0.6-0.2,0.9-0.2c0.5,0,0.8,0.1,1.1,0.3
						c0.3,0.2,0.5,0.5,0.6,0.9h-0.7c-0.1-0.2-0.2-0.4-0.4-0.5c-0.2-0.1-0.4-0.2-0.7-0.2c-0.3,0-0.6,0.1-0.8,0.4
						c-0.2,0.2-0.3,0.6-0.3,1c0,0.4,0.1,0.8,0.3,1c0.2,0.2,0.5,0.4,0.8,0.4c0.3,0,0.5-0.1,0.7-0.2c0.2-0.1,0.3-0.3,0.4-0.5h0.7
						c-0.1,0.4-0.3,0.7-0.6,0.9c-0.3,0.2-0.7,0.3-1.1,0.3c-0.3,0-0.7-0.1-0.9-0.2c-0.3-0.2-0.5-0.4-0.6-0.7c-0.2-0.3-0.2-0.6-0.2-1
						C48.1,48.4,48.2,48.1,48.3,47.8z"/>
					<path class="st2" d="M55.8,49h-2.9c0,0.4,0.1,0.6,0.4,0.8c0.2,0.2,0.5,0.3,0.8,0.3c0.3,0,0.5-0.1,0.7-0.2
						c0.2-0.1,0.3-0.3,0.4-0.5h0.7c-0.1,0.4-0.3,0.6-0.6,0.9c-0.3,0.2-0.7,0.3-1.1,0.3c-0.3,0-0.7-0.1-0.9-0.2
						c-0.3-0.2-0.5-0.4-0.6-0.7c-0.2-0.3-0.2-0.6-0.2-1s0.1-0.7,0.2-1c0.2-0.3,0.4-0.5,0.6-0.7c0.3-0.2,0.6-0.2,1-0.2
						c0.3,0,0.7,0.1,0.9,0.2s0.5,0.4,0.6,0.6c0.1,0.3,0.2,0.6,0.2,0.9C55.8,48.8,55.8,48.9,55.8,49z M55,47.9
						c-0.1-0.2-0.2-0.3-0.4-0.4s-0.4-0.1-0.6-0.1c-0.3,0-0.6,0.1-0.8,0.3c-0.2,0.2-0.3,0.5-0.4,0.8h2.3C55.1,48.3,55.1,48.1,55,47.9
						z"/>
					<path class="st2" d="M61.8,47.1c0.2,0.1,0.4,0.3,0.5,0.5s0.2,0.5,0.2,0.9v2.2h-0.6v-2.1c0-0.4-0.1-0.6-0.3-0.8
						c-0.2-0.2-0.4-0.3-0.7-0.3c-0.3,0-0.6,0.1-0.8,0.3s-0.3,0.5-0.3,0.9v2h-0.6v-2.1c0-0.4-0.1-0.6-0.3-0.8
						c-0.2-0.2-0.4-0.3-0.7-0.3c-0.3,0-0.6,0.1-0.8,0.3c-0.2,0.2-0.3,0.5-0.3,0.9v2h-0.6V47h0.6v0.5c0.1-0.2,0.3-0.3,0.5-0.4
						c0.2-0.1,0.4-0.2,0.7-0.2c0.3,0,0.6,0.1,0.8,0.2c0.2,0.1,0.4,0.3,0.5,0.6c0.1-0.3,0.3-0.5,0.5-0.6c0.2-0.1,0.5-0.2,0.8-0.2
						C61.3,46.9,61.6,46.9,61.8,47.1z"/>
					<path class="st2" d="M64.7,47.1c0.2-0.1,0.5-0.2,0.8-0.2c0.3,0,0.6,0.1,0.9,0.2c0.3,0.2,0.5,0.4,0.6,0.7c0.2,0.3,0.2,0.6,0.2,1
						c0,0.4-0.1,0.7-0.2,1c-0.2,0.3-0.4,0.5-0.6,0.7s-0.6,0.2-0.9,0.2c-0.3,0-0.6-0.1-0.8-0.2s-0.4-0.3-0.5-0.5v0.7h-0.6v-5h0.6v2
						C64.2,47.4,64.4,47.2,64.7,47.1z M66.4,48.1c-0.1-0.2-0.3-0.4-0.5-0.5s-0.4-0.2-0.6-0.2c-0.2,0-0.4,0.1-0.6,0.2
						c-0.2,0.1-0.3,0.3-0.5,0.5c-0.1,0.2-0.2,0.4-0.2,0.7c0,0.3,0.1,0.5,0.2,0.7c0.1,0.2,0.3,0.4,0.5,0.5s0.4,0.2,0.6,0.2
						c0.2,0,0.4-0.1,0.6-0.2s0.3-0.3,0.5-0.5c0.1-0.2,0.2-0.5,0.2-0.7C66.6,48.5,66.6,48.3,66.4,48.1z"/>
					<path class="st2" d="M71.4,49h-2.9c0,0.4,0.1,0.6,0.4,0.8c0.2,0.2,0.5,0.3,0.8,0.3c0.3,0,0.5-0.1,0.7-0.2s0.3-0.3,0.4-0.5h0.7
						c-0.1,0.4-0.3,0.6-0.6,0.9c-0.3,0.2-0.7,0.3-1.1,0.3c-0.3,0-0.7-0.1-0.9-0.2c-0.3-0.2-0.5-0.4-0.6-0.7c-0.2-0.3-0.2-0.6-0.2-1
						s0.1-0.7,0.2-1c0.2-0.3,0.4-0.5,0.6-0.7c0.3-0.2,0.6-0.2,1-0.2c0.3,0,0.7,0.1,0.9,0.2s0.5,0.4,0.6,0.6c0.1,0.3,0.2,0.6,0.2,0.9
						C71.4,48.8,71.4,48.9,71.4,49z M70.6,47.9c-0.1-0.2-0.2-0.3-0.4-0.4s-0.4-0.1-0.6-0.1c-0.3,0-0.6,0.1-0.8,0.3
						c-0.2,0.2-0.3,0.5-0.4,0.8h2.3C70.8,48.3,70.7,48.1,70.6,47.9z"/>
					<path class="st2" d="M73.3,47.1c0.2-0.1,0.4-0.2,0.7-0.2v0.6h-0.2c-0.7,0-1,0.4-1,1.1v2h-0.6V47h0.6v0.6
						C72.9,47.3,73.1,47.2,73.3,47.1z"/>
				</g>
			</g>
		</g>
	</g>
	<g>
		<g class="st1">
			<path class="st2" d="M18,84.8c-0.2-0.1-0.4-0.3-0.6-0.5c-0.1-0.2-0.2-0.4-0.2-0.7h0.7c0,0.2,0.1,0.4,0.3,0.6s0.4,0.2,0.7,0.2
				c0.3,0,0.5-0.1,0.7-0.2s0.3-0.3,0.3-0.6c0-0.2,0-0.3-0.1-0.4c-0.1-0.1-0.2-0.2-0.4-0.3s-0.3-0.1-0.6-0.2
				c-0.3-0.1-0.6-0.2-0.7-0.2c-0.2-0.1-0.3-0.2-0.5-0.4c-0.1-0.2-0.2-0.4-0.2-0.7c0-0.3,0.1-0.5,0.2-0.7s0.3-0.3,0.5-0.5
				c0.2-0.1,0.5-0.2,0.8-0.2c0.4,0,0.8,0.1,1.1,0.3c0.3,0.2,0.4,0.5,0.5,0.9h-0.7c0-0.2-0.1-0.3-0.3-0.5s-0.4-0.2-0.7-0.2
				c-0.3,0-0.5,0.1-0.6,0.2c-0.2,0.1-0.2,0.3-0.2,0.6c0,0.2,0,0.3,0.1,0.4c0.1,0.1,0.2,0.2,0.4,0.2s0.3,0.1,0.6,0.2
				c0.3,0.1,0.6,0.2,0.7,0.3c0.2,0.1,0.3,0.2,0.5,0.4c0.1,0.2,0.2,0.4,0.2,0.7c0,0.2-0.1,0.4-0.2,0.6c-0.1,0.2-0.3,0.4-0.5,0.5
				c-0.2,0.1-0.5,0.2-0.8,0.2C18.5,84.9,18.2,84.9,18,84.8z"/>
			<path class="st2" d="M24.5,81.2v3.7h-0.6v-0.5c-0.1,0.2-0.3,0.3-0.5,0.4c-0.2,0.1-0.4,0.2-0.7,0.2c-0.3,0-0.5-0.1-0.8-0.2
				c-0.2-0.1-0.4-0.3-0.5-0.5c-0.1-0.2-0.2-0.5-0.2-0.9v-2.2h0.6v2.1c0,0.4,0.1,0.6,0.3,0.8c0.2,0.2,0.4,0.3,0.8,0.3
				c0.3,0,0.6-0.1,0.8-0.3s0.3-0.5,0.3-0.9v-2H24.5z"/>
			<path class="st2" d="M28.5,81.5c0.3,0.3,0.4,0.7,0.4,1.2v2.2h-0.6v-2.1c0-0.4-0.1-0.6-0.3-0.8c-0.2-0.2-0.4-0.3-0.8-0.3
				c-0.3,0-0.6,0.1-0.8,0.3c-0.2,0.2-0.3,0.5-0.3,0.9v2h-0.6v-3.7h0.6v0.5c0.1-0.2,0.3-0.3,0.5-0.4c0.2-0.1,0.4-0.2,0.7-0.2
				C27.8,81.1,28.2,81.3,28.5,81.5z"/>
			<path class="st2" d="M29.8,84.8c-0.1-0.1-0.1-0.2-0.1-0.3s0-0.2,0.1-0.3c0.1-0.1,0.2-0.1,0.3-0.1c0.1,0,0.2,0,0.3,0.1
				c0.1,0.1,0.1,0.2,0.1,0.3s0,0.2-0.1,0.3c-0.1,0.1-0.2,0.1-0.3,0.1C29.9,84.9,29.9,84.9,29.8,84.8z"/>
			<path class="st2" d="M32.8,80.6V80h1.3v4.9h-0.6v-4.3H32.8z"/>
			<path class="st2" d="M38.2,80.6h-2.4v1.5c0.1-0.1,0.3-0.3,0.5-0.4s0.4-0.1,0.7-0.1c0.4,0,0.7,0.1,0.9,0.2
				c0.2,0.2,0.4,0.4,0.5,0.6s0.2,0.5,0.2,0.8c0,0.3-0.1,0.6-0.2,0.9c-0.1,0.3-0.3,0.5-0.6,0.6c-0.2,0.1-0.6,0.2-0.9,0.2
				c-0.5,0-0.9-0.1-1.1-0.4c-0.3-0.2-0.5-0.6-0.5-1h0.6c0.1,0.3,0.2,0.5,0.4,0.6c0.2,0.1,0.4,0.2,0.7,0.2c0.4,0,0.6-0.1,0.8-0.3
				c0.2-0.2,0.3-0.5,0.3-0.8s-0.1-0.6-0.3-0.8s-0.4-0.3-0.8-0.3c-0.2,0-0.4,0.1-0.6,0.2s-0.3,0.3-0.4,0.5h-0.6V80h2.9V80.6z"/>
			<path class="st2" d="M41.2,82c0.2-0.3,0.4-0.5,0.6-0.7c0.3-0.2,0.6-0.2,0.9-0.2c0.3,0,0.6,0.1,0.8,0.2c0.2,0.1,0.4,0.3,0.6,0.5
				v-1.9h0.6v5h-0.6v-0.7c-0.1,0.2-0.3,0.4-0.5,0.5c-0.2,0.1-0.5,0.2-0.8,0.2c-0.3,0-0.6-0.1-0.9-0.2c-0.3-0.2-0.5-0.4-0.6-0.7
				c-0.2-0.3-0.2-0.6-0.2-1C41,82.7,41.1,82.3,41.2,82z M44,82.3c-0.1-0.2-0.3-0.4-0.5-0.5c-0.2-0.1-0.4-0.2-0.6-0.2
				c-0.2,0-0.4,0.1-0.6,0.2s-0.3,0.3-0.5,0.5s-0.2,0.4-0.2,0.7c0,0.3,0.1,0.5,0.2,0.7c0.1,0.2,0.3,0.4,0.5,0.5s0.4,0.2,0.6,0.2
				c0.2,0,0.4-0.1,0.6-0.2s0.3-0.3,0.5-0.5c0.1-0.2,0.2-0.5,0.2-0.7C44.1,82.8,44.1,82.5,44,82.3z"/>
			<path class="st2" d="M49.1,83.3h-2.9c0,0.4,0.1,0.6,0.4,0.8c0.2,0.2,0.5,0.3,0.8,0.3c0.3,0,0.5-0.1,0.7-0.2
				c0.2-0.1,0.3-0.3,0.4-0.5h0.7c-0.1,0.4-0.3,0.6-0.6,0.9c-0.3,0.2-0.7,0.3-1.1,0.3c-0.3,0-0.7-0.1-0.9-0.2
				c-0.3-0.2-0.5-0.4-0.6-0.7c-0.2-0.3-0.2-0.6-0.2-1s0.1-0.7,0.2-1c0.2-0.3,0.4-0.5,0.6-0.7c0.3-0.2,0.6-0.2,1-0.2
				c0.3,0,0.7,0.1,0.9,0.2s0.5,0.4,0.6,0.6c0.1,0.3,0.2,0.6,0.2,0.9C49.1,83,49.1,83.1,49.1,83.3z M48.4,82.2
				c-0.1-0.2-0.2-0.3-0.4-0.4s-0.4-0.1-0.6-0.1c-0.3,0-0.6,0.1-0.8,0.3c-0.2,0.2-0.3,0.5-0.4,0.8h2.3C48.5,82.5,48.5,82.3,48.4,82.2
				z"/>
			<path class="st2" d="M49.9,82c0.2-0.3,0.4-0.5,0.6-0.7c0.3-0.2,0.6-0.2,0.9-0.2c0.5,0,0.8,0.1,1.1,0.3c0.3,0.2,0.5,0.5,0.6,0.9
				h-0.7c-0.1-0.2-0.2-0.4-0.4-0.5c-0.2-0.1-0.4-0.2-0.7-0.2c-0.3,0-0.6,0.1-0.8,0.4c-0.2,0.2-0.3,0.6-0.3,1c0,0.4,0.1,0.8,0.3,1
				c0.2,0.2,0.5,0.4,0.8,0.4c0.3,0,0.5-0.1,0.7-0.2c0.2-0.1,0.3-0.3,0.4-0.5h0.7c-0.1,0.4-0.3,0.7-0.6,0.9c-0.3,0.2-0.7,0.3-1.1,0.3
				c-0.3,0-0.7-0.1-0.9-0.2c-0.3-0.2-0.5-0.4-0.6-0.7c-0.2-0.3-0.2-0.6-0.2-1C49.7,82.7,49.8,82.3,49.9,82z"/>
			<path class="st2" d="M57.4,83.3h-2.9c0,0.4,0.1,0.6,0.4,0.8c0.2,0.2,0.5,0.3,0.8,0.3c0.3,0,0.5-0.1,0.7-0.2
				c0.2-0.1,0.3-0.3,0.4-0.5h0.7c-0.1,0.4-0.3,0.6-0.6,0.9c-0.3,0.2-0.7,0.3-1.1,0.3c-0.3,0-0.7-0.1-0.9-0.2
				c-0.3-0.2-0.5-0.4-0.6-0.7c-0.2-0.3-0.2-0.6-0.2-1s0.1-0.7,0.2-1c0.2-0.3,0.4-0.5,0.6-0.7c0.3-0.2,0.6-0.2,1-0.2
				c0.3,0,0.7,0.1,0.9,0.2s0.5,0.4,0.6,0.6c0.1,0.3,0.2,0.6,0.2,0.9C57.4,83,57.4,83.1,57.4,83.3z M56.6,82.2
				c-0.1-0.2-0.2-0.3-0.4-0.4s-0.4-0.1-0.6-0.1c-0.3,0-0.6,0.1-0.8,0.3c-0.2,0.2-0.3,0.5-0.4,0.8h2.3C56.8,82.5,56.7,82.3,56.6,82.2
				z"/>
			<path class="st2" d="M63.4,81.3c0.2,0.1,0.4,0.3,0.5,0.5s0.2,0.5,0.2,0.9v2.2h-0.6v-2.1c0-0.4-0.1-0.6-0.3-0.8
				c-0.2-0.2-0.4-0.3-0.7-0.3c-0.3,0-0.6,0.1-0.8,0.3s-0.3,0.5-0.3,0.9v2h-0.6v-2.1c0-0.4-0.1-0.6-0.3-0.8c-0.2-0.2-0.4-0.3-0.7-0.3
				c-0.3,0-0.6,0.1-0.8,0.3c-0.2,0.2-0.3,0.5-0.3,0.9v2h-0.6v-3.7h0.6v0.5c0.1-0.2,0.3-0.3,0.5-0.4c0.2-0.1,0.4-0.2,0.7-0.2
				c0.3,0,0.6,0.1,0.8,0.2c0.2,0.1,0.4,0.3,0.5,0.6c0.1-0.3,0.3-0.5,0.5-0.6c0.2-0.1,0.5-0.2,0.8-0.2C62.9,81.1,63.2,81.2,63.4,81.3
				z"/>
			<path class="st2" d="M66.3,81.3c0.2-0.1,0.5-0.2,0.8-0.2c0.3,0,0.6,0.1,0.9,0.2c0.3,0.2,0.5,0.4,0.6,0.7c0.2,0.3,0.2,0.6,0.2,1
				c0,0.4-0.1,0.7-0.2,1c-0.2,0.3-0.4,0.5-0.6,0.7s-0.6,0.2-0.9,0.2c-0.3,0-0.6-0.1-0.8-0.2s-0.4-0.3-0.5-0.5v0.7h-0.6v-5h0.6v2
				C65.8,81.7,66,81.5,66.3,81.3z M68.1,82.3c-0.1-0.2-0.3-0.4-0.5-0.5s-0.4-0.2-0.6-0.2c-0.2,0-0.4,0.1-0.6,0.2
				c-0.2,0.1-0.3,0.3-0.5,0.5c-0.1,0.2-0.2,0.4-0.2,0.7c0,0.3,0.1,0.5,0.2,0.7c0.1,0.2,0.3,0.4,0.5,0.5s0.4,0.2,0.6,0.2
				c0.2,0,0.4-0.1,0.6-0.2s0.3-0.3,0.5-0.5c0.1-0.2,0.2-0.5,0.2-0.7C68.2,82.8,68.2,82.5,68.1,82.3z"/>
			<path class="st2" d="M73,83.3H70c0,0.4,0.1,0.6,0.4,0.8c0.2,0.2,0.5,0.3,0.8,0.3c0.3,0,0.5-0.1,0.7-0.2s0.3-0.3,0.4-0.5h0.7
				c-0.1,0.4-0.3,0.6-0.6,0.9c-0.3,0.2-0.7,0.3-1.1,0.3c-0.3,0-0.7-0.1-0.9-0.2c-0.3-0.2-0.5-0.4-0.6-0.7c-0.2-0.3-0.2-0.6-0.2-1
				s0.1-0.7,0.2-1c0.2-0.3,0.4-0.5,0.6-0.7c0.3-0.2,0.6-0.2,1-0.2c0.3,0,0.7,0.1,0.9,0.2s0.5,0.4,0.6,0.6c0.1,0.3,0.2,0.6,0.2,0.9
				C73,83,73,83.1,73,83.3z M72.2,82.2c-0.1-0.2-0.2-0.3-0.4-0.4s-0.4-0.1-0.6-0.1c-0.3,0-0.6,0.1-0.8,0.3c-0.2,0.2-0.3,0.5-0.4,0.8
				h2.3C72.4,82.5,72.3,82.3,72.2,82.2z"/>
			<path class="st2" d="M74.9,81.3c0.2-0.1,0.4-0.2,0.7-0.2v0.6h-0.2c-0.7,0-1,0.4-1,1.1v2h-0.6v-3.7h0.6v0.6
				C74.5,81.6,74.7,81.4,74.9,81.3z"/>
		</g>
	</g>
	<g>
		<g>
			<line class="st3" x1="106.2" y1="87.3" x2="86.6" y2="87.3"/>
			<line class="st3" x1="106.2" y1="84.3" x2="86.6" y2="84.3"/>
			<line class="st3" x1="103.5" y1="81.3" x2="86.6" y2="81.3"/>
			<path class="st3" d="M103.4,81.3c1.4,0,2.5-1.1,2.5-2.5s-1.1-2.5-2.5-2.5s-2.5,1.1-2.5,2.5"/>
			<line class="st3" x1="96.1" y1="78.3" x2="86.6" y2="78.3"/>
			<path class="st3" d="M96.1,78.3c1.4,0,2.5-1.1,2.5-2.5s-1.1-2.5-2.5-2.5s-2.5,1.1-2.5,2.5"/>
		</g>
	</g>
	<g>
		<g class="st1">
			<path class="st2" d="M22.1,111.1v4.6h-0.6v-3.5l-1.5,3.5h-0.4l-1.6-3.5v3.5h-0.6v-4.6H18l1.7,3.8l1.7-3.8H22.1z"/>
			<path class="st2" d="M23.8,115.6c-0.3-0.2-0.5-0.4-0.7-0.7c-0.2-0.3-0.2-0.6-0.2-1c0-0.4,0.1-0.7,0.2-1c0.2-0.3,0.4-0.5,0.7-0.7
				c0.3-0.2,0.6-0.2,0.9-0.2c0.3,0,0.7,0.1,0.9,0.2c0.3,0.2,0.5,0.4,0.7,0.7c0.2,0.3,0.2,0.6,0.2,1s-0.1,0.7-0.3,1
				c-0.2,0.3-0.4,0.5-0.7,0.7c-0.3,0.2-0.6,0.2-1,0.2C24.4,115.8,24.1,115.8,23.8,115.6z M25.3,115.2c0.2-0.1,0.3-0.3,0.5-0.5
				s0.2-0.5,0.2-0.8s-0.1-0.5-0.2-0.8c-0.1-0.2-0.3-0.4-0.5-0.5c-0.2-0.1-0.4-0.2-0.6-0.2c-0.2,0-0.4,0-0.6,0.2
				c-0.2,0.1-0.3,0.3-0.4,0.5s-0.2,0.5-0.2,0.8c0,0.3,0.1,0.6,0.2,0.8s0.3,0.4,0.4,0.5s0.4,0.2,0.6,0.2
				C24.9,115.3,25.1,115.3,25.3,115.2z"/>
			<path class="st2" d="M30.3,112.4c0.3,0.3,0.4,0.7,0.4,1.2v2.2h-0.6v-2.1c0-0.4-0.1-0.6-0.3-0.8c-0.2-0.2-0.4-0.3-0.8-0.3
				c-0.3,0-0.6,0.1-0.8,0.3c-0.2,0.2-0.3,0.5-0.3,0.9v2h-0.6v-3.7H28v0.5c0.1-0.2,0.3-0.3,0.5-0.4c0.2-0.1,0.4-0.2,0.7-0.2
				C29.7,112,30,112.2,30.3,112.4z"/>
			<path class="st2" d="M31.6,115.7c-0.1-0.1-0.1-0.2-0.1-0.3s0-0.2,0.1-0.3c0.1-0.1,0.2-0.1,0.3-0.1c0.1,0,0.2,0,0.3,0.1
				c0.1,0.1,0.1,0.2,0.1,0.3s0,0.2-0.1,0.3c-0.1,0.1-0.2,0.1-0.3,0.1C31.8,115.8,31.7,115.8,31.6,115.7z"/>
			<path class="st2" d="M34.7,111.5v-0.6h1.3v4.9h-0.6v-4.3H34.7z"/>
			<path class="st2" d="M38.8,111.3c-0.4,0-0.7,0.2-0.9,0.5c-0.2,0.3-0.3,0.8-0.3,1.5c0.1-0.2,0.3-0.4,0.5-0.5
				c0.2-0.1,0.5-0.2,0.8-0.2c0.5,0,0.8,0.1,1.1,0.4c0.3,0.3,0.4,0.7,0.4,1.2c0,0.3-0.1,0.6-0.2,0.8s-0.3,0.4-0.5,0.6
				c-0.2,0.1-0.5,0.2-0.9,0.2c-0.5,0-0.8-0.1-1.1-0.3s-0.4-0.5-0.5-0.9c-0.1-0.4-0.2-0.8-0.2-1.3c0-1.6,0.6-2.5,1.7-2.5
				c0.4,0,0.8,0.1,1,0.4c0.3,0.2,0.4,0.5,0.4,0.9h-0.6C39.6,111.6,39.3,111.3,38.8,111.3z M38.2,113.2c-0.2,0.1-0.3,0.2-0.4,0.4
				c-0.1,0.2-0.2,0.4-0.2,0.6c0,0.3,0.1,0.6,0.3,0.8s0.5,0.3,0.8,0.3c0.3,0,0.6-0.1,0.7-0.3c0.2-0.2,0.3-0.5,0.3-0.8
				c0-0.3-0.1-0.6-0.3-0.8s-0.4-0.3-0.8-0.3C38.6,113.1,38.4,113.1,38.2,113.2z"/>
			<path class="st2" d="M43.1,112.9c0.2-0.3,0.4-0.5,0.6-0.7c0.3-0.2,0.6-0.2,0.9-0.2c0.3,0,0.6,0.1,0.8,0.2
				c0.2,0.1,0.4,0.3,0.6,0.5v-1.9h0.6v5H46v-0.7c-0.1,0.2-0.3,0.4-0.5,0.5c-0.2,0.1-0.5,0.2-0.8,0.2c-0.3,0-0.6-0.1-0.9-0.2
				c-0.3-0.2-0.5-0.4-0.6-0.7c-0.2-0.3-0.2-0.6-0.2-1C42.9,113.6,43,113.2,43.1,112.9z M45.8,113.2c-0.1-0.2-0.3-0.4-0.5-0.5
				c-0.2-0.1-0.4-0.2-0.6-0.2c-0.2,0-0.4,0.1-0.6,0.2s-0.3,0.3-0.5,0.5s-0.2,0.4-0.2,0.7c0,0.3,0.1,0.5,0.2,0.7
				c0.1,0.2,0.3,0.4,0.5,0.5s0.4,0.2,0.6,0.2c0.2,0,0.4-0.1,0.6-0.2s0.3-0.3,0.5-0.5c0.1-0.2,0.2-0.5,0.2-0.7
				C46,113.7,46,113.4,45.8,113.2z"/>
			<path class="st2" d="M51,114.2h-2.9c0,0.4,0.1,0.6,0.4,0.8c0.2,0.2,0.5,0.3,0.8,0.3c0.3,0,0.5-0.1,0.7-0.2
				c0.2-0.1,0.3-0.3,0.4-0.5H51c-0.1,0.4-0.3,0.6-0.6,0.9c-0.3,0.2-0.7,0.3-1.1,0.3c-0.3,0-0.7-0.1-0.9-0.2
				c-0.3-0.2-0.5-0.4-0.6-0.7c-0.2-0.3-0.2-0.6-0.2-1s0.1-0.7,0.2-1c0.2-0.3,0.4-0.5,0.6-0.7c0.3-0.2,0.6-0.2,1-0.2
				c0.3,0,0.7,0.1,0.9,0.2s0.5,0.4,0.6,0.6c0.1,0.3,0.2,0.6,0.2,0.9C51,113.9,51,114,51,114.2z M50.2,113.1
				c-0.1-0.2-0.2-0.3-0.4-0.4s-0.4-0.1-0.6-0.1c-0.3,0-0.6,0.1-0.8,0.3c-0.2,0.2-0.3,0.5-0.4,0.8h2.3
				C50.4,113.4,50.3,113.2,50.2,113.1z"/>
			<path class="st2" d="M51.8,112.9c0.2-0.3,0.4-0.5,0.6-0.7c0.3-0.2,0.6-0.2,0.9-0.2c0.5,0,0.8,0.1,1.1,0.3
				c0.3,0.2,0.5,0.5,0.6,0.9h-0.7c-0.1-0.2-0.2-0.4-0.4-0.5c-0.2-0.1-0.4-0.2-0.7-0.2c-0.3,0-0.6,0.1-0.8,0.4
				c-0.2,0.2-0.3,0.6-0.3,1c0,0.4,0.1,0.8,0.3,1c0.2,0.2,0.5,0.4,0.8,0.4c0.3,0,0.5-0.1,0.7-0.2c0.2-0.1,0.3-0.3,0.4-0.5h0.7
				c-0.1,0.4-0.3,0.7-0.6,0.9c-0.3,0.2-0.7,0.3-1.1,0.3c-0.3,0-0.7-0.1-0.9-0.2c-0.3-0.2-0.5-0.4-0.6-0.7c-0.2-0.3-0.2-0.6-0.2-1
				C51.6,113.6,51.7,113.2,51.8,112.9z"/>
			<path class="st2" d="M59.2,114.2h-2.9c0,0.4,0.1,0.6,0.4,0.8c0.2,0.2,0.5,0.3,0.8,0.3c0.3,0,0.5-0.1,0.7-0.2
				c0.2-0.1,0.3-0.3,0.4-0.5h0.7c-0.1,0.4-0.3,0.6-0.6,0.9c-0.3,0.2-0.7,0.3-1.1,0.3c-0.3,0-0.7-0.1-0.9-0.2
				c-0.3-0.2-0.5-0.4-0.6-0.7c-0.2-0.3-0.2-0.6-0.2-1s0.1-0.7,0.2-1c0.2-0.3,0.4-0.5,0.6-0.7c0.3-0.2,0.6-0.2,1-0.2
				c0.3,0,0.7,0.1,0.9,0.2s0.5,0.4,0.6,0.6c0.1,0.3,0.2,0.6,0.2,0.9C59.3,113.9,59.3,114,59.2,114.2z M58.5,113.1
				c-0.1-0.2-0.2-0.3-0.4-0.4s-0.4-0.1-0.6-0.1c-0.3,0-0.6,0.1-0.8,0.3c-0.2,0.2-0.3,0.5-0.4,0.8h2.3
				C58.6,113.4,58.6,113.2,58.5,113.1z"/>
			<path class="st2" d="M65.3,112.2c0.2,0.1,0.4,0.3,0.5,0.5s0.2,0.5,0.2,0.9v2.2h-0.6v-2.1c0-0.4-0.1-0.6-0.3-0.8
				c-0.2-0.2-0.4-0.3-0.7-0.3c-0.3,0-0.6,0.1-0.8,0.3s-0.3,0.5-0.3,0.9v2h-0.6v-2.1c0-0.4-0.1-0.6-0.3-0.8c-0.2-0.2-0.4-0.3-0.7-0.3
				c-0.3,0-0.6,0.1-0.8,0.3c-0.2,0.2-0.3,0.5-0.3,0.9v2h-0.6v-3.7h0.6v0.5c0.1-0.2,0.3-0.3,0.5-0.4c0.2-0.1,0.4-0.2,0.7-0.2
				c0.3,0,0.6,0.1,0.8,0.2c0.2,0.1,0.4,0.3,0.5,0.6c0.1-0.3,0.3-0.5,0.5-0.6c0.2-0.1,0.5-0.2,0.8-0.2C64.8,112,65,112.1,65.3,112.2z
				"/>
			<path class="st2" d="M68.2,112.3c0.2-0.1,0.5-0.2,0.8-0.2c0.3,0,0.6,0.1,0.9,0.2c0.3,0.2,0.5,0.4,0.6,0.7c0.2,0.3,0.2,0.6,0.2,1
				c0,0.4-0.1,0.7-0.2,1c-0.2,0.3-0.4,0.5-0.6,0.7s-0.6,0.2-0.9,0.2c-0.3,0-0.6-0.1-0.8-0.2s-0.4-0.3-0.5-0.5v0.7H67v-5h0.6v2
				C67.7,112.6,67.9,112.4,68.2,112.3z M69.9,113.2c-0.1-0.2-0.3-0.4-0.5-0.5s-0.4-0.2-0.6-0.2c-0.2,0-0.4,0.1-0.6,0.2
				c-0.2,0.1-0.3,0.3-0.5,0.5c-0.1,0.2-0.2,0.4-0.2,0.7c0,0.3,0.1,0.5,0.2,0.7c0.1,0.2,0.3,0.4,0.5,0.5s0.4,0.2,0.6,0.2
				c0.2,0,0.4-0.1,0.6-0.2s0.3-0.3,0.5-0.5c0.1-0.2,0.2-0.5,0.2-0.7C70.1,113.7,70,113.4,69.9,113.2z"/>
			<path class="st2" d="M74.9,114.2h-2.9c0,0.4,0.1,0.6,0.4,0.8c0.2,0.2,0.5,0.3,0.8,0.3c0.3,0,0.5-0.1,0.7-0.2
				c0.2-0.1,0.3-0.3,0.4-0.5h0.7c-0.1,0.4-0.3,0.6-0.6,0.9s-0.7,0.3-1.1,0.3c-0.3,0-0.7-0.1-0.9-0.2c-0.3-0.2-0.5-0.4-0.6-0.7
				c-0.2-0.3-0.2-0.6-0.2-1s0.1-0.7,0.2-1c0.2-0.3,0.4-0.5,0.6-0.7c0.3-0.2,0.6-0.2,1-0.2c0.3,0,0.7,0.1,0.9,0.2s0.5,0.4,0.6,0.6
				c0.1,0.3,0.2,0.6,0.2,0.9C74.9,113.9,74.9,114,74.9,114.2z M74.1,113.1c-0.1-0.2-0.2-0.3-0.4-0.4s-0.4-0.1-0.6-0.1
				c-0.3,0-0.6,0.1-0.8,0.3c-0.2,0.2-0.3,0.5-0.4,0.8h2.3C74.3,113.4,74.2,113.2,74.1,113.1z"/>
			<path class="st2" d="M76.8,112.2c0.2-0.1,0.4-0.2,0.7-0.2v0.6h-0.2c-0.7,0-1,0.4-1,1.1v2h-0.6v-3.7h0.6v0.6
				C76.4,112.5,76.6,112.3,76.8,112.2z"/>
		</g>
	</g>
	<g>
		<g>
			<g>
				<line class="st3" x1="106.2" y1="118.2" x2="86.6" y2="118.2"/>
			</g>
			<g>
				<line class="st3" x1="106.2" y1="115.2" x2="86.6" y2="115.2"/>
			</g>
			<g>
				<line class="st3" x1="103.5" y1="112.2" x2="86.6" y2="112.2"/>
			</g>
			<g>
				<path class="st3" d="M103.4,112.2c1.4,0,2.5-1.1,2.5-2.5s-1.1-2.5-2.5-2.5s-2.5,1.1-2.5,2.5"/>
			</g>
			<g>
				<line class="st3" x1="96.1" y1="109.2" x2="86.6" y2="109.2"/>
			</g>
			<g>
				<path class="st3" d="M96.1,109.2c1.4,0,2.5-1.1,2.5-2.5s-1.1-2.5-2.5-2.5s-2.5,1.1-2.5,2.5"/>
			</g>
		</g>
	</g>
	<line class="st4" x1="17.9" y1="63.3" x2="124.7" y2="63.3"/>
	<line class="st4" x1="17.9" y1="96.6" x2="124.7" y2="96.6"/>
	<g>
		<circle class="st3" cx="96.7" cy="46.9" r="5.4"/>
		<g>
			<g>
				<g>
					<circle class="st5" cx="96.7" cy="38.5" r="0.7"/>
				</g>
				<g>
					<circle class="st5" cx="92.5" cy="39.6" r="0.7"/>
				</g>
				<g>
					<circle class="st5" cx="89.4" cy="42.7" r="0.7"/>
				</g>
				<g>
					<circle class="st5" cx="88.3" cy="46.8" r="0.7"/>
				</g>
				<g>
					<circle class="st5" cx="89.4" cy="51" r="0.7"/>
				</g>
				<g>
					<circle class="st5" cx="92.4" cy="54.1" r="0.7"/>
				</g>
				<g>
					<circle class="st5" cx="96.6" cy="55.3" r="0.7"/>
				</g>
				<g>
					<circle class="st5" cx="100.8" cy="54.2" r="0.7"/>
				</g>
				<g>
					<circle class="st5" cx="103.9" cy="51.1" r="0.7"/>
				</g>
				<g>
					<circle class="st5" cx="105" cy="46.9" r="0.7"/>
				</g>
				<g>
					<circle class="st5" cx="103.9" cy="42.7" r="0.7"/>
				</g>
				<g>
					<circle class="st5" cx="100.9" cy="39.6" r="0.7"/>
				</g>
			</g>
		</g>
	</g>
	<g>
		<g class="st1">
			<path class="st2" d="M115.3,45.5v-0.7h1.5v5.8H116v-5.1H115.3z"/>
			<path class="st2" d="M121.7,45.5h-2.8v1.8c0.1-0.2,0.3-0.3,0.5-0.4c0.2-0.1,0.5-0.2,0.8-0.2c0.4,0,0.8,0.1,1.1,0.3
				c0.3,0.2,0.5,0.4,0.6,0.7s0.2,0.6,0.2,0.9c0,0.4-0.1,0.7-0.2,1c-0.1,0.3-0.4,0.5-0.7,0.7c-0.3,0.2-0.7,0.3-1.1,0.3
				c-0.6,0-1-0.1-1.4-0.4s-0.6-0.7-0.6-1.2h0.7c0.1,0.3,0.2,0.5,0.4,0.7c0.2,0.2,0.5,0.3,0.8,0.3c0.4,0,0.7-0.1,1-0.4
				c0.2-0.3,0.3-0.6,0.3-1s-0.1-0.7-0.3-1s-0.5-0.3-0.9-0.3c-0.3,0-0.5,0.1-0.7,0.2c-0.2,0.1-0.4,0.3-0.5,0.6h-0.7v-3.3h3.5V45.5z"
				/>
			<path class="st2" d="M123.2,45.4c0.3-0.3,0.6-0.4,1-0.4s0.8,0.1,1,0.4c0.3,0.3,0.4,0.6,0.4,1c0,0.3-0.1,0.5-0.2,0.7
				c-0.1,0.2-0.3,0.4-0.5,0.5s-0.5,0.2-0.7,0.2c-0.4,0-0.8-0.1-1-0.4s-0.4-0.6-0.4-1C122.8,46,122.9,45.7,123.2,45.4z M124.8,45.7
				c-0.2-0.2-0.4-0.3-0.6-0.3c-0.2,0-0.4,0.1-0.6,0.3c-0.2,0.2-0.2,0.4-0.2,0.7c0,0.3,0.1,0.6,0.2,0.7c0.2,0.2,0.3,0.3,0.6,0.3
				c0.2,0,0.4-0.1,0.6-0.3s0.2-0.4,0.2-0.7C125,46.1,124.9,45.9,124.8,45.7z"/>
		</g>
	</g>
	<g>
		<g class="st1">
			<path class="st2" d="M115.3,79.8v-0.7h1.5v5.8H116v-5.1H115.3z"/>
			<path class="st2" d="M118.4,81.4c-0.2-0.2-0.2-0.5-0.2-0.8c0-0.3,0.1-0.5,0.2-0.8c0.1-0.2,0.4-0.4,0.6-0.6s0.6-0.2,1-0.2
				s0.8,0.1,1,0.2c0.3,0.1,0.5,0.3,0.6,0.6c0.1,0.2,0.2,0.5,0.2,0.8c0,0.3-0.1,0.6-0.2,0.8c-0.2,0.2-0.4,0.4-0.7,0.5
				c0.3,0.1,0.6,0.3,0.8,0.5c0.2,0.3,0.3,0.6,0.3,0.9c0,0.3-0.1,0.6-0.3,0.9c-0.2,0.3-0.4,0.5-0.7,0.6c-0.3,0.1-0.7,0.2-1.1,0.2
				s-0.8-0.1-1.1-0.2c-0.3-0.1-0.5-0.3-0.7-0.6c-0.2-0.3-0.3-0.6-0.3-0.9c0-0.4,0.1-0.7,0.3-0.9c0.2-0.3,0.5-0.4,0.8-0.5
				C118.8,81.8,118.6,81.6,118.4,81.4z M119.1,82.5c-0.2,0.2-0.4,0.5-0.4,0.8c0,0.3,0.1,0.6,0.4,0.8c0.2,0.2,0.6,0.3,1,0.3
				c0.4,0,0.7-0.1,1-0.3s0.4-0.5,0.4-0.8c0-0.4-0.1-0.6-0.4-0.8c-0.2-0.2-0.6-0.3-1-0.3C119.7,82.2,119.3,82.3,119.1,82.5z
				 M120.9,79.9c-0.2-0.2-0.5-0.3-0.9-0.3c-0.4,0-0.7,0.1-0.9,0.3c-0.2,0.2-0.3,0.4-0.3,0.8c0,0.3,0.1,0.5,0.3,0.7
				c0.2,0.2,0.5,0.3,0.9,0.3c0.4,0,0.6-0.1,0.9-0.3c0.2-0.2,0.3-0.4,0.3-0.7C121.2,80.3,121.1,80.1,120.9,79.9z"/>
			<path class="st2" d="M123.2,79.7c0.3-0.3,0.6-0.4,1-0.4s0.8,0.1,1,0.4s0.4,0.6,0.4,1c0,0.3-0.1,0.5-0.2,0.7
				c-0.1,0.2-0.3,0.4-0.5,0.5s-0.5,0.2-0.7,0.2c-0.4,0-0.8-0.1-1-0.4s-0.4-0.6-0.4-1C122.8,80.3,122.9,79.9,123.2,79.7z M124.8,80
				c-0.2-0.2-0.4-0.3-0.6-0.3c-0.2,0-0.4,0.1-0.6,0.3c-0.2,0.2-0.2,0.4-0.2,0.7c0,0.3,0.1,0.6,0.2,0.7s0.3,0.3,0.6,0.3
				s0.4-0.1,0.6-0.3c0.2-0.2,0.2-0.4,0.2-0.7C125,80.4,125,80.1,124.8,80z"/>
		</g>
	</g>
	<g>
		<g class="st1">
			<path class="st2" d="M117,113.9c0.4-0.3,0.7-0.7,1-1.1c0.3-0.4,0.4-0.8,0.4-1.1c0-0.3-0.1-0.6-0.3-0.8s-0.4-0.3-0.8-0.3
				c-0.4,0-0.6,0.1-0.8,0.3s-0.3,0.5-0.3,0.9h-0.7c0-0.6,0.2-1.1,0.5-1.4c0.3-0.3,0.8-0.5,1.3-0.5c0.5,0,1,0.2,1.3,0.5
				c0.3,0.3,0.5,0.7,0.5,1.3c0,0.4-0.1,0.9-0.4,1.3c-0.3,0.4-0.6,0.8-0.9,1.1s-0.8,0.7-1.3,1.1h2.8v0.6h-3.8v-0.5
				C116.1,114.7,116.6,114.2,117,113.9z"/>
			<path class="st2" d="M120.5,110.7c0.3-0.5,0.8-0.8,1.6-0.8c0.7,0,1.3,0.3,1.6,0.8s0.4,1.2,0.4,2.1c0,0.9-0.1,1.7-0.4,2.2
				c-0.3,0.5-0.8,0.8-1.6,0.8c-0.7,0-1.3-0.3-1.6-0.8c-0.3-0.5-0.4-1.2-0.4-2.2C120.1,111.9,120.2,111.2,120.5,110.7z M123.3,111.7
				c-0.1-0.3-0.2-0.6-0.4-0.8s-0.5-0.3-0.8-0.3c-0.4,0-0.6,0.1-0.8,0.3c-0.2,0.2-0.3,0.5-0.4,0.8c-0.1,0.3-0.1,0.7-0.1,1.2
				c0,0.5,0,0.9,0.1,1.2c0.1,0.3,0.2,0.6,0.4,0.8c0.2,0.2,0.5,0.3,0.8,0.3c0.4,0,0.6-0.1,0.8-0.3s0.3-0.5,0.4-0.8s0.1-0.7,0.1-1.2
				C123.4,112.4,123.3,112,123.3,111.7z"/>
			<path class="st2" d="M125.2,110.6c0.3-0.3,0.6-0.4,1-0.4s0.8,0.1,1,0.4c0.3,0.3,0.4,0.6,0.4,1c0,0.3-0.1,0.5-0.2,0.7
				c-0.1,0.2-0.3,0.4-0.5,0.5s-0.5,0.2-0.7,0.2c-0.4,0-0.8-0.1-1-0.4s-0.4-0.6-0.4-1C124.8,111.2,124.9,110.8,125.2,110.6z
				 M126.8,110.9c-0.2-0.2-0.4-0.3-0.6-0.3c-0.2,0-0.4,0.1-0.6,0.3c-0.2,0.2-0.2,0.4-0.2,0.7c0,0.3,0.1,0.6,0.2,0.7
				c0.2,0.2,0.3,0.3,0.6,0.3c0.2,0,0.4-0.1,0.6-0.3s0.2-0.4,0.2-0.7C127.1,111.3,127,111.1,126.8,110.9z"/>
		</g>
	</g>
	<g>
		<g>
			<g class="st1">
				<path class="st6" d="M19.5,19.6v7.3h-1v-7.6h1.8l2,7.3l2-7.3h1.8v7.6h-1v-7.3l-1.9,7.3h-1.8L19.5,19.6z"/>
				<path class="st6" d="M27.7,24.7v-1.1c0-1.5,0.9-2.3,2.3-2.3c1.3,0,2.2,0.7,2.3,2.3v0.9h-3.6v0.2c0,1.1,0.6,1.4,1.4,1.4
					c0.7,0,1.2-0.2,1.3-1h0.9c-0.1,1.2-1,1.8-2.2,1.8C28.6,27,27.7,26.2,27.7,24.7z M31.3,23.7L31.3,23.7c0-1.2-0.6-1.5-1.3-1.5
					c-0.8,0-1.4,0.4-1.4,1.5v0.1H31.3z"/>
				<path class="st6" d="M34,25.6v-3.3h-0.8v-0.9H34v-1.2h0.9v1.2h1.4v0.9h-1.4v3.8h1.4v0.9h-0.8C34.4,26.9,34,26.3,34,25.6z"/>
				<path class="st6" d="M37.3,24.7v-1.1c0-1.5,0.9-2.3,2.3-2.3c1.3,0,2.2,0.7,2.3,2.3v0.9h-3.6v0.2c0,1.1,0.6,1.4,1.4,1.4
					c0.7,0,1.2-0.2,1.3-1h0.9c-0.1,1.2-1,1.8-2.2,1.8C38.2,27,37.3,26.2,37.3,24.7z M41,23.7L41,23.7c0-1.2-0.6-1.5-1.3-1.5
					c-0.8,0-1.4,0.4-1.4,1.5v0.1H41z"/>
				<path class="st6" d="M45.2,21.3c1.4,0,2.3,0.8,2.3,2.3v1.1c0,1.5-0.9,2.3-2.3,2.3S43,26.2,43,24.7v-1.1
					C43,22.1,43.9,21.3,45.2,21.3z M45.2,26.2c0.8,0,1.4-0.3,1.4-1.4v-1.1c0-1-0.6-1.4-1.4-1.4c-0.8,0-1.4,0.4-1.4,1.4v1.1
					C43.9,25.8,44.4,26.2,45.2,26.2z"/>
				<path class="st6" d="M51.5,24.8h0.9c0,0.8,0.6,1.3,1.6,1.3c1,0,1.5-0.6,1.5-1.5c0-0.9-0.6-1.5-1.7-1.5h-0.6v-0.9l2.7-2.1h-4.2
					v-0.9h4.4V21l-1.7,1.3c1.3,0.2,2,1.1,2,2.3c0,1.3-0.9,2.3-2.5,2.3C52.5,27,51.5,26.1,51.5,24.8z"/>
				<path class="st6" d="M60.5,24.7v-1.1c0-1.5,0.9-2.3,2.3-2.3c0.6,0,1,0.2,1.4,0.5v-2.8h0.9v8h-0.9v-0.4c-0.3,0.3-0.8,0.5-1.4,0.5
					C61.4,27,60.5,26.2,60.5,24.7z M62.8,26.2c0.7,0,1.4-0.3,1.4-1.4v-1.1c0-1-0.6-1.4-1.4-1.4c-0.8,0-1.4,0.4-1.4,1.4v1.1
					C61.5,25.8,62,26.2,62.8,26.2z"/>
				<path class="st6" d="M66.5,24.7v-1.1c0-1.5,0.9-2.3,2.3-2.3c0.6,0,1,0.2,1.4,0.5v-0.4h0.9v5.5h-0.9v-0.4
					c-0.3,0.3-0.8,0.5-1.4,0.5C67.4,27,66.5,26.2,66.5,24.7z M68.8,26.2c0.7,0,1.4-0.3,1.4-1.4v-1.1c0-1-0.6-1.4-1.4-1.4
					c-0.8,0-1.4,0.4-1.4,1.4v1.1C67.4,25.8,68,26.2,68.8,26.2z"/>
				<path class="st6" d="M76.7,21.4h1l-2.7,8h-1l0.8-2.5h-0.8l-1.9-5.5h1l1.7,5.3L76.7,21.4z"/>
				<path class="st6" d="M78.7,25.1h0.9c0,0.7,0.6,1.1,1.4,1.1c0.8,0,1.3-0.3,1.3-0.8c0-0.3-0.2-0.6-0.7-0.7l-1.3-0.3
					c-0.8-0.2-1.3-0.7-1.3-1.5c0-0.9,0.7-1.6,2-1.6c1.3,0,2.1,0.7,2.1,1.8h-0.9c0-0.6-0.5-1-1.2-1c-0.7,0-1.1,0.3-1.1,0.7
					c0,0.4,0.3,0.6,0.7,0.6l1.2,0.3c0.9,0.2,1.5,0.7,1.5,1.6c0,1-0.8,1.7-2.2,1.7C79.7,27,78.8,26.4,78.7,25.1z"/>
			</g>
		</g>
	</g>
</g>
</svg>
