<?xml version="1.0" encoding="utf-8"?>
<!-- Generator: Adobe Illustrator 26.3.1, SVG Export Plug-In . SVG Version: 6.00 Build 0)  -->
<svg version="1.1" id="Calque_1" xmlns="http://www.w3.org/2000/svg" xmlns:xlink="http://www.w3.org/1999/xlink" x="0px" y="0px"
	 viewBox="0 0 510.2 486.6" style="enable-background:new 0 0 510.2 486.6;" xml:space="preserve">
<style type="text/css">
	.st0{fill:#446963;}
</style>
<g>
	<g>
		<g>
			<path class="st0" d="M255.1,49.9l57.1,115.5l7,14.1l15.6,2.3l127.5,18.5l-92.3,90l-11.3,11l2.7,15.5L383.2,444l-114.2-60l-14-7.3
				l-14,7.3L127,444l21.9-127.1l2.7-15.6l-11.3-11l-92.5-90l127.7-18.6l15.6-2.3l7-14.1L255.1,49.9 M255.1,0
				c-6.1,0-11.1,4.2-15,12.6l-69,139.5L17.2,174.5C5.7,176.3,0,181,0,188.6c0,4.3,2.6,9.2,7.7,14.7l111.6,108.5L92.9,465.1
				c-0.4,2.9-0.6,4.9-0.6,6.1c0,4.3,1.1,7.9,3.2,10.9c2.1,3,5.4,4.4,9.7,4.4c3.7,0,7.8-1.2,12.3-3.7l137.7-72.4l137.7,72.4
				c4.3,2.5,8.4,3.7,12.3,3.7c4.1,0,7.2-1.5,9.4-4.4c2.1-3,3.2-6.6,3.2-10.9c0-2.7-0.1-4.7-0.3-6.1l-26.4-153.3l111.3-108.5
				c5.3-5.3,8-10.2,8-14.7c0-7.6-5.7-12.3-17.2-14.1l-153.9-22.4l-69-139.5C266.2,4.2,261.2,0,255.1,0L255.1,0z"/>
		</g>
	</g>
</g>
</svg>
