<?xml version="1.0" encoding="utf-8"?>
<!-- Generator: Adobe Illustrator 26.3.1, SVG Export Plug-In . SVG Version: 6.00 Build 0)  -->
<svg version="1.1" id="Calque_1" xmlns="http://www.w3.org/2000/svg" xmlns:xlink="http://www.w3.org/1999/xlink" x="0px" y="0px"
	 viewBox="0 0 510.2 486.6" style="enable-background:new 0 0 510.2 486.6;" xml:space="preserve">
<style type="text/css">
	.st0{fill:#446963;}
</style>
<g>
	<g>
		<path class="st0" d="M510.2,188.6c0,4.5-2.7,9.4-8,14.7L390.9,311.8l26.4,153.3c0.2,1.4,0.3,3.5,0.3,6.1c0,4.3-1.1,7.9-3.2,10.9
			c-2.1,3-5.3,4.4-9.4,4.4c-3.9,0-8-1.2-12.3-3.7l-137.7-72.4l-137.7,72.4c-4.5,2.5-8.6,3.7-12.3,3.7c-4.3,0-7.5-1.5-9.7-4.4
			c-2.1-3-3.2-6.6-3.2-10.9c0-1.2,0.2-3.3,0.6-6.1l26.4-153.3L7.7,203.3C2.6,197.8,0,192.9,0,188.6c0-7.6,5.7-12.3,17.2-14.1
			l153.9-22.4l69-139.5C244,4.2,249,0,255.1,0s11.1,4.2,15,12.6l69,139.5L493,174.5C504.5,176.3,510.2,181,510.2,188.6z"/>
	</g>
</g>
</svg>
