<?xml version="1.0" encoding="utf-8"?>
<!-- Generator: Adobe Illustrator 26.3.1, SVG Export Plug-In . SVG Version: 6.00 Build 0)  -->
<svg version="1.1" id="Calque_1" xmlns="http://www.w3.org/2000/svg" xmlns:xlink="http://www.w3.org/1999/xlink" x="0px" y="0px"
	 viewBox="0 0 281 36.1" style="enable-background:new 0 0 281 36.1;" xml:space="preserve">
<style type="text/css">
	.st0{fill:#EFBC80;}
</style>
<g>
	<path class="st0" d="M274.8,5.9V8l0,0c-6.4-3.4-13.3-5-21.6-5c-17.9,0-26.7,7.6-36,15.6c-9.2,7.9-18.7,16.2-37.6,16.2
		c-18.8,0-28.4-8.2-37.6-16.2C132.8,10.6,124,3,106,3s-26.8,7.6-36.1,15.6c-9.2,7.9-18.7,16.2-37.6,16.2c-18.9,0-28.4-8.2-37.6-16.2
		c-0.3-0.3-0.6-0.5-0.9-0.8v-2.6c0.8,0.7,1.6,1.4,2.4,2.1c9.3,8,18.1,15.6,36.1,15.6s26.8-7.6,36.1-15.6C77.6,9.4,87.1,1.1,106,1.1
		s28.4,8.2,37.6,16.2c9.3,8,18.1,15.6,36.1,15.6s26.8-7.6,36.1-15.6c9.2-7.9,18.7-16.1,37.4-16.2h0.2C261.4,1.2,268.4,2.7,274.8,5.9
		z"/>
	<path class="st0" d="M106,0.4c19.1,0,28.8,8.3,38.1,16.3c9.2,7.9,17.9,15.4,35.6,15.4c17.7,0,26.4-7.5,35.6-15.4
		c9.3-8,18.9-16.3,37.9-16.3h0.2c8.2,0,15.3,1.6,21.8,4.8l0.4,0.2v2.8l0,1.1l-1.1-0.6c-6.3-3.3-13.1-4.9-21.2-4.9
		c-17.6,0-26.3,7.5-35.5,15.4c-9.4,8.1-19,16.4-38.1,16.4c-19.1,0-28.7-8.3-38-16.3c-9.2-8-17.9-15.5-35.6-15.5
		c-17.7,0-26.4,7.5-35.6,15.4c-9.3,8-19,16.3-38.1,16.3c-19.1,0-28.8-8.3-38.1-16.3c-0.2-0.1-0.3-0.3-0.5-0.4L-7,18.1v-4.5l1.2,1
		c0.5,0.5,1.1,0.9,1.6,1.4l0.8,0.7c9.2,7.9,17.9,15.5,35.6,15.5c17.7,0,26.4-7.5,35.6-15.4C77.2,8.7,86.8,0.4,106,0.4z M179.7,33.7
		c-18.3,0-27.2-7.7-36.6-15.8c-9.1-7.9-18.5-16-37.1-16s-28,8.1-37.1,16C59.5,26,50.6,33.7,32.3,33.7C14,33.7,5.1,26-4.3,17.9
		l-0.8-0.7c-0.1-0.1-0.3-0.2-0.4-0.3v0.6l0.2,0.2c0.2,0.1,0.3,0.3,0.5,0.4c9.1,7.9,18.5,16,37.1,16c18.5,0,28-8.1,37.1-15.9
		C78.8,9.9,87.7,2.2,106,2.2c18.3,0,27.2,7.7,36.6,15.8c9.1,7.9,18.5,16,37.1,16c18.5,0,28-8.1,37.1-15.9
		c9.4-8.1,18.3-15.8,36.5-15.8c7.9,0,14.6,1.4,20.8,4.5V6.3c-6.2-3-13-4.4-20.8-4.4h-0.2c-18.5,0.1-27.9,8.1-36.9,16
		C206.8,26,197.9,33.7,179.7,33.7z"/>
</g>
<g>
	<path class="st0" d="M422.2,5.9V8l0,0c-6.4-3.4-13.3-5-21.6-5c-17.9,0-26.7,7.6-36,15.6c-9.2,7.9-18.7,16.2-37.6,16.2
		c-18.8,0-28.4-8.2-37.6-16.2c-9.3-8-18.1-15.6-36.1-15.6s-26.8,7.6-36.1,15.6c-9.2,7.9-18.7,16.2-37.6,16.2
		c-18.9,0-28.4-8.2-37.6-16.2c-0.3-0.3-0.6-0.5-0.9-0.8v-2.6c0.8,0.7,1.6,1.4,2.4,2.1c9.3,8,18.1,15.6,36.1,15.6s26.8-7.6,36.1-15.6
		c9.2-7.9,18.7-16.2,37.6-16.2s28.4,8.2,37.6,16.2c9.3,8,18.1,15.6,36.1,15.6s26.8-7.6,36.1-15.6c9.2-7.9,18.7-16.1,37.4-16.2h0.2
		C408.7,1.2,415.8,2.7,422.2,5.9z"/>
	<path class="st0" d="M253.3,0.4c19.1,0,28.8,8.3,38.1,16.3c9.2,7.9,17.9,15.4,35.6,15.4c17.7,0,26.4-7.5,35.6-15.4
		c9.3-8,18.9-16.3,37.9-16.3h0.2c8.2,0,15.3,1.6,21.8,4.8l0.4,0.2v2.8l0,1.1l-1.1-0.6c-6.3-3.3-13.1-4.9-21.2-4.9
		c-17.6,0-26.3,7.5-35.5,15.4c-9.4,8.1-19,16.4-38.1,16.4c-19.1,0-28.7-8.3-38-16.3c-9.2-8-17.9-15.5-35.6-15.5
		c-17.7,0-26.4,7.5-35.6,15.4c-9.3,8-19,16.3-38.1,16.3c-19.1,0-28.8-8.3-38.1-16.3c-0.2-0.1-0.3-0.3-0.5-0.4l-0.7-0.6v-4.5l1.2,1
		c0.5,0.5,1.1,0.9,1.6,1.4l0.8,0.7c9.2,7.9,17.9,15.5,35.6,15.5c17.7,0,26.4-7.5,35.6-15.4C224.6,8.7,234.2,0.4,253.3,0.4z
		 M327,33.7c-18.3,0-27.2-7.7-36.6-15.8c-9.1-7.9-18.5-16-37.1-16s-28,8.1-37.1,16c-9.4,8.1-18.3,15.8-36.6,15.8
		c-18.3,0-27.2-7.7-36.6-15.8l-0.8-0.7c-0.1-0.1-0.3-0.2-0.4-0.3v0.6l0.2,0.2c0.2,0.1,0.3,0.3,0.5,0.4c9.1,7.9,18.5,16,37.1,16
		c18.5,0,28-8.1,37.1-15.9c9.4-8.1,18.3-15.8,36.6-15.8c18.3,0,27.2,7.7,36.6,15.8c9.1,7.9,18.5,16,37.1,16c18.5,0,28-8.1,37.1-15.9
		c9.4-8.1,18.3-15.8,36.5-15.8c7.9,0,14.6,1.4,20.8,4.5V6.3c-6.2-3-13-4.4-20.8-4.4h-0.2c-18.5,0.1-27.9,8.1-36.9,16
		C354.2,26,345.3,33.7,327,33.7z"/>
</g>
</svg>
