<?xml version="1.0" encoding="utf-8"?>
<!-- Generator: Adobe Illustrator 26.3.1, SVG Export Plug-In . SVG Version: 6.00 Build 0)  -->
<svg version="1.1" id="Calque_1" xmlns="http://www.w3.org/2000/svg" xmlns:xlink="http://www.w3.org/1999/xlink" x="0px" y="0px"
	 viewBox="0 0 600 600" style="enable-background:new 0 0 600 600;" xml:space="preserve">
<style type="text/css">
	.st0{fill:#446963;}
</style>
<g>
	<path class="st0" d="M506.4,326.1c0.6-3.8-2-7.5-5.8-8.1c-3.8-0.7-7.5,2-8.1,5.8c-1.9,11.7-4.9,23-8.8,33.8
		c-14-1.3-21.8-6.4-30.7-12.2c-10.6-7-22.6-14.8-45.6-14.8c-23,0-35,7.9-45.6,14.8c-10.3,6.8-19.2,12.6-38,12.6s-27.8-5.8-38-12.6
		c-3.4-2.2-6.9-4.5-10.9-6.7c-26.8-20.3-37.6-47.2-34.8-85.6c2-26.9,19.1-46.3,35.2-53.5c13-5.8,25.8-4.8,35.9,3
		c13,10,19,24.4,15.7,37.4c-2.9,11.2-12.1,19.3-25.7,22.7c-1.6,0-3.3-0.1-5-0.3c-3.6-0.5-6.9,2.1-7.5,5.7c-0.4,2.4,0.6,4.8,2.4,6.2
		c0.7,1,1.6,1.8,2.8,2.3c51,22,84.7,11.5,104-1.2c24.9-16.4,41-47.4,41-79c0-28.3-12.9-56.2-35.4-76.6c-17.5-15.8-48.9-34.6-99.7-35
		c-0.6-0.2-1.2-0.3-1.9-0.3c-64.7,0-122.6,29.8-160.6,76.4c-1.1,1.2-2.2,2.4-3.3,3.6l0.2,0.2C110.9,200,94.6,244.1,94.6,292
		c0,40.6,11.7,78.4,31.9,110.4l-0.3,0.5c0.4,0.2,0.7,0.4,1.1,0.6c36.9,57.5,101.4,95.7,174.6,95.7
		C403.8,499.2,489.8,426.4,506.4,326.1z M342.1,254.4c6.1-9.6,13.7-29.9-4.1-58.8c-10.6-17.1-31.4-28.1-57-30.2
		c-36.5-2.9-74.4,12.9-98.8,41.2c-39.9,46.4-51.8,127.8,13.5,200.5c-4.6,1.2-9.8,1.8-16.3,1.8c-18.9,0-27.7-5.8-38-12.6
		c-1.2-0.8-2.3-1.5-3.5-2.3c-18.5-29.6-29.2-64.6-29.2-102.1c0-48.7,18.1-93.2,47.9-127.2c34.1-32.6,86.1-50.5,133.2-45.1
		c29.9,3.4,57.2,18.2,73,39.5c11.6,15.6,16,33.4,12.6,51.4c-5.6,30.3-21.4,44.1-38,49.9C339.2,258.6,340.8,256.5,342.1,254.4z
		 M407.6,447.3c-10.3,6.8-19.2,12.6-38,12.6s-27.8-5.8-38-12.6c-10.6-7-22.6-14.8-45.6-14.8s-35,7.9-45.6,14.8
		c-9.6,6.3-17.9,11.7-34.2,12.5c-18.6-10.6-35.2-24.3-49.3-40.3c6.2,1.9,13.6,3.1,22.6,3.1c22.9,0,35-7.9,45.6-14.8
		c10.3-6.8,19.2-12.6,38-12.6c18.9,0,27.8,5.8,38,12.6c10.6,7,22.6,14.8,45.6,14.8s35-7.9,45.6-14.8c10.3-6.8,19.2-12.6,38-12.6
		c13.9,0,22.3,3.1,30.1,7.6c-8.2,11.8-17.8,22.7-28.4,32.3C421.7,438,414.5,442.7,407.6,447.3z M368.3,473.5
		c-20.8,7.5-43.1,11.6-66.4,11.6c-26.7,0-52.1-5.5-75.3-15.3c8.7-2.9,15.3-7.2,21.3-11.2c10.3-6.8,19.2-12.6,38-12.6
		s27.8,5.8,38,12.6C334.4,465.5,346.1,473.3,368.3,473.5z M369.4,356.8c10.3-6.8,19.2-12.6,38-12.6s27.8,5.8,38,12.6
		c8.4,5.5,17.9,11.7,33,13.9c-3.1,7.1-6.7,13.9-10.6,20.5c-9.4-5.5-20.2-9.8-37.6-9.8c-23,0-35,7.9-45.6,14.8
		c-10.3,6.8-19.2,12.6-38,12.6s-27.8-5.8-38-12.6c-10.6-7-22.6-14.8-45.6-14.8s-35,7.9-45.6,14.8c-2.9,1.9-5.6,3.7-8.5,5.3
		c-10.6-11.3-19.1-22.8-25.9-34.4c7.5-2.8,13.3-6.7,19-10.4c10.3-6.8,19.2-12.6,38-12.6c13.1,0,21.4,2.8,28.8,6.8
		c3.1,2.3,6.5,4.5,10,6.6l0.2-0.3c10.4,6.8,22.4,14.3,44.7,14.3C346.8,371.6,358.8,363.8,369.4,356.8z M269.7,187.3
		c-24.1,10.8-41,36.2-43.1,64.8c-2.4,32.4,4.3,58.1,20.8,78.7c-2.3-0.2-4.6-0.3-7.2-0.3c-22.9,0-35,7.9-45.6,14.8
		c-5.6,3.7-11,7.2-17.9,9.6c-25.2-53.6-12.7-106.5,15.7-139.6c25.9-30,62.1-38.6,87.5-36.6c8.4,0.7,16,2.4,22.8,5.1
		C292.3,181.2,280.9,182.3,269.7,187.3z M425.4,196.6c0,27.2-13.7,53.8-34.9,67.7c-15.2,10-33.5,13.6-54.2,10.8
		c27.5-7.2,46.3-28.7,52.5-62.1c4-21.8-1.2-43.2-15-61.9c-18-24.3-48.8-41-82.3-44.8c-15.7-1.8-31.8-1.2-47.8,1.5
		c18.4-5.8,38-9,58.3-9c0.8,0,1.5-0.1,2.2-0.3C363.3,99.2,425.4,133.5,425.4,196.6z"/>
	<path class="st0" d="M300,3.5C142.1,3.5,13.7,131.9,13.7,289.8c0,51,13.6,101,39.3,144.8c1.4,2.4,4,3.8,6.6,3.8
		c1.3,0,2.6-0.3,3.8-1c3.6-2.1,4.8-6.8,2.7-10.4c-24.3-41.4-37.2-88.8-37.2-137.1C28.9,140.4,150.5,18.8,300,18.8
		s271.1,121.6,271.1,271.1c0,46.7-12.1,92.8-34.9,133.2c-2.1,3.7-0.8,8.3,2.9,10.4c3.7,2.1,8.3,0.8,10.4-2.9
		c24.1-42.7,36.9-91.3,36.9-140.7C586.3,131.9,457.9,3.5,300,3.5z"/>
	<ellipse class="st0" cx="502.1" cy="304" rx="7.1" ry="7.1"/>
	<path class="st0" d="M120.7,475.4c2.9,2.9,3.3,6.1,3.5,9.2c0.1,1.3,0.7,2.4,1.4,3.1c1.9,1.9,5.4,2.2,7.4,0.1c0.8-0.8,1.5-2,1.5-3.7
		c0.2-3.6-0.5-10-6.5-16c-7.6-7.6-18-8.7-24.7-1.9c-5.2,5.2-5.3,12-1.8,21.3l2.4,6.3c2,5.4,2.4,7.8,0.1,10.1
		c-2.7,2.8-6.6,2.3-10.2-1.3c-4.1-4.1-4.5-9.4-4.5-12.7c-0.1-1.1-0.6-2.2-1.3-2.9c-1.9-2-5.2-2.2-7.4-0.1c-1.2,1.2-1.6,2.7-1.6,4.7
		c-0.3,6.3,2.8,13.6,7.6,18.4c8.1,8,18.7,9.4,26.1,2c5.5-5.5,5.5-12,1.8-21.7l-2.6-6.6c-2-5.2-2.1-7.3-0.1-9.3
		C114.3,471.8,117.7,472.4,120.7,475.4z"/>
	<path class="st0" d="M168.2,501.5l-13-8.5c-2.9-1.9-6.4-1.2-8.2,1.7l-25.2,38.6c-1.8,2.8-1.2,6.3,1.7,8.2c2.8,1.8,6.3,1,8.1-1.8
		l8.3-12.7l8.2,5.4c10,6.6,21.3,4.8,27.2-4.3C181.3,519,178.4,508.2,168.2,501.5z M165.3,521.6c-2.8,4.3-7.3,5.1-11.8,2.2l-8.2-5.3
		l9-13.7l8.2,5.3C167,513,168,517.5,165.3,521.6z"/>
	<path class="st0" d="M219.2,525.2c-16-5.6-32.8,2.2-38.2,17.9c-5.5,15.6,2.7,32.2,18.8,37.8c16.1,5.6,33-2.3,38.4-17.8
		C243.6,547.6,235.3,530.8,219.2,525.2z M226.8,559.2c-3.6,10.3-13.4,15.1-23.4,11.6c-10.1-3.5-14.7-13.4-11.1-23.7
		s13.4-15.2,23.4-11.6C225.8,538.9,230.4,548.9,226.8,559.2z"/>
	<path class="st0" d="M294.4,540.7l-38.5-3.9c-3-0.3-5.6,1.7-5.9,4.7c-0.3,2.9,1.8,5.5,4.8,5.8l13.5,1.4l-4.2,41.3
		c-0.3,3.3,1.9,6.2,5.1,6.5c3.4,0.3,6.1-2,6.4-5.3l4.2-41.3l13.5,1.4c3,0.3,5.6-1.8,5.9-4.7C299.5,543.5,297.5,541,294.4,540.7z"/>
	<path class="st0" d="M355.8,573.8c-1.7,0.2-3.1,1.2-4.3,2.8c-3.2,4.8-7.5,7.4-12.9,8c-10.6,1.3-19.2-5.5-20.5-16.2
		c-1.3-10.9,5.3-19.6,15.9-20.9c5.5-0.7,10.4,0.8,14.6,4.6c1.5,1.3,3.1,1.9,4.7,1.7c3-0.4,5.1-3.1,4.8-5.9c-0.2-1.5-1-2.8-2.3-4.1
		c-5.8-5.5-14.4-8.1-23-7.1c-17,2.1-28.6,16.6-26.5,33s16.7,27.7,33.7,25.6c8.7-1.1,16.4-5.8,20.6-12.5c1.1-1.7,1.4-3.1,1.3-4.5
		C361.4,575.6,358.8,573.5,355.8,573.8z"/>
	<path class="st0" d="M428.2,561l-34.7-36.3c-1.9-2-4.2-2.7-6.6-1.7c-2.4,0.9-3.7,2.9-3.7,5.7l-1.7,50.2c0,1.3,0.2,2.3,0.5,3.2
		c1.1,2.9,4.3,4.3,7.4,3.2c2.3-0.9,3.6-2.9,3.6-5.8l0.2-6.3l22.5-8.6l4.4,4.6c2,2.1,4.3,2.8,6.6,1.9c3.1-1.2,4.4-4.4,3.3-7.3
		C429.7,562.9,429.1,562,428.2,561z M393.3,562.8l-0.2-23.8l15.5,17.9L393.3,562.8z"/>
	<path class="st0" d="M452.7,516.9l-7,1.2c-5.5,0.8-7.6,0.5-9.1-1.8c-1.9-3-0.6-6.2,2.9-8.5c3.4-2.2,6.6-2,9.7-1.5
		c1.3,0.1,2.5-0.2,3.3-0.7c2.2-1.5,3.2-4.8,1.6-7.3c-0.6-0.9-1.6-1.8-3.3-2.2c-3.5-1-9.9-1.6-17,3.1c-9,5.9-12.2,15.8-6.9,23.8
		c4,6.1,10.7,7.6,20.5,6.1l6.6-1c5.7-0.9,8.1-0.8,9.9,1.9c2.1,3.2,0.9,6.9-3.3,9.7c-4.8,3.2-10.1,2.5-13.4,1.8
		c-1.1-0.2-2.3,0.2-3.1,0.7c-2.3,1.5-3.3,4.6-1.6,7.2c0.9,1.4,2.4,2.2,4.3,2.6c6.1,1.6,13.9,0,19.5-3.7c9.5-6.2,13.1-16.4,7.3-25.2
		C469.3,516.6,463,515.2,452.7,516.9z"/>
	<path class="st0" d="M484.5,471.9l9.6-9.5c2.1-2.1,2.1-5.4,0.1-7.5c-2.1-2.1-5.3-2.1-7.5,0l-27.5,27.3c-2.1,2.1-2.2,5.4-0.1,7.5
		c2.1,2.1,5.4,2.1,7.5,0l9.6-9.5l29.3,29.4c2.4,2.4,6,2.5,8.3,0.1c2.4-2.4,2.3-6,0-8.4L484.5,471.9z"/>
</g>
</svg>
