<?xml version="1.0" encoding="utf-8"?>
<!-- Generator: Adobe Illustrator 26.3.1, SVG Export Plug-In . SVG Version: 6.00 Build 0)  -->
<svg version="1.1" id="Calque_1" xmlns="http://www.w3.org/2000/svg" xmlns:xlink="http://www.w3.org/1999/xlink" x="0px" y="0px"
	 viewBox="0 0 600 600" style="enable-background:new 0 0 600 600;" xml:space="preserve">
<style type="text/css">
	.st0{fill:#AFCFC4;}
</style>
<g>
	<path class="st0" d="M506.38,326.06c0.64-3.84-1.96-7.46-5.8-8.1c-3.84-0.67-7.46,1.96-8.1,5.8c-1.94,11.71-4.89,23.01-8.76,33.83
		c-14.05-1.32-21.84-6.42-30.73-12.25c-10.6-6.96-22.62-14.84-45.58-14.84c-22.95,0-34.97,7.88-45.57,14.84
		c-10.3,6.76-19.19,12.59-38.05,12.59c-18.86,0-27.75-5.84-38.05-12.59c-3.39-2.23-6.93-4.55-10.93-6.67
		c-26.81-20.26-37.63-47.16-34.8-85.56c1.98-26.94,19.09-46.28,35.17-53.48c13.01-5.83,25.76-4.76,35.9,3.02
		c13.04,10.01,19.04,24.35,15.66,37.43c-2.89,11.19-12.14,19.27-25.7,22.72c-1.65,0.02-3.31-0.07-4.97-0.27
		c-3.62-0.45-6.93,2.07-7.48,5.67c-0.37,2.44,0.62,4.78,2.41,6.24c0.7,0.99,1.65,1.81,2.82,2.32
		c50.96,22.01,84.69,11.49,104.03-1.22c24.89-16.36,40.98-47.36,40.98-78.98c0-28.28-12.9-56.18-35.4-76.57
		c-17.45-15.81-48.86-34.61-99.67-35.05c-0.6-0.17-1.24-0.27-1.9-0.27c-64.7,0-122.56,29.8-160.61,76.39
		c-1.11,1.19-2.21,2.38-3.28,3.6l0.24,0.21c-27.34,35.12-43.65,79.24-43.65,127.09c0,40.56,11.72,78.43,31.94,110.42l-0.32,0.55
		c0.36,0.21,0.7,0.42,1.05,0.63c36.88,57.51,101.38,95.69,174.62,95.69C403.76,499.25,489.77,426.41,506.38,326.06z M342.14,254.39
		c6.13-9.56,13.74-29.93-4.13-58.84c-10.6-17.15-31.37-28.14-57-30.17c-36.53-2.89-74.39,12.89-98.77,41.18
		c-39.95,46.36-51.75,127.83,13.47,200.49c-4.56,1.16-9.83,1.84-16.26,1.84c-18.85,0-27.74-5.84-38.04-12.59
		c-1.16-0.76-2.33-1.52-3.51-2.28c-18.51-29.64-29.23-64.62-29.23-102.06c0-48.69,18.11-93.22,47.94-127.24
		c34.09-32.55,86.06-50.47,133.23-45.12c29.93,3.4,57.24,18.16,73.03,39.48c11.59,15.64,15.96,33.43,12.63,51.45
		c-5.58,30.26-21.36,44.1-38.05,49.91C339.19,258.57,340.76,256.54,342.14,254.39z M407.57,447.26
		c-10.3,6.76-19.19,12.59-38.05,12.59c-18.86,0-27.75-5.84-38.05-12.59c-10.6-6.96-22.62-14.84-45.57-14.84
		c-22.95,0-34.96,7.88-45.56,14.84c-9.58,6.29-17.91,11.73-34.17,12.49c-18.59-10.64-35.24-24.29-49.31-40.27
		c6.23,1.91,13.56,3.13,22.59,3.13c22.95,0,34.96-7.88,45.56-14.84c10.29-6.76,19.18-12.59,38.03-12.59
		c18.86,0,27.75,5.84,38.05,12.59c10.6,6.96,22.62,14.84,45.57,14.84c22.95,0,34.97-7.88,45.57-14.84
		c10.3-6.76,19.19-12.59,38.05-12.59c13.88,0,22.32,3.12,30.15,7.63c-8.25,11.84-17.79,22.66-28.39,32.29
		C421.72,437.98,414.53,442.69,407.57,447.26z M368.29,473.55c-20.76,7.53-43.14,11.62-66.41,11.62c-26.7,0-52.15-5.45-75.3-15.28
		c8.73-2.94,15.26-7.2,21.29-11.16c10.29-6.76,19.18-12.59,38.03-12.59c18.85,0,27.75,5.84,38.05,12.59
		C334.36,465.55,346.14,473.27,368.29,473.55z M369.37,356.81c10.3-6.76,19.19-12.59,38.05-12.59c18.86,0,27.75,5.84,38.05,12.59
		c8.44,5.54,17.87,11.7,32.99,13.94c-3.14,7.09-6.68,13.93-10.6,20.51c-9.38-5.48-20.24-9.8-37.59-9.8
		c-22.95,0-34.97,7.88-45.57,14.84c-10.3,6.76-19.19,12.59-38.05,12.59c-18.86,0-27.75-5.84-38.05-12.59
		c-10.6-6.96-22.62-14.84-45.57-14.84c-22.95,0-34.96,7.88-45.56,14.84c-2.86,1.88-5.61,3.68-8.49,5.31
		c-10.6-11.3-19.14-22.84-25.86-34.41c7.52-2.84,13.34-6.66,19.01-10.38c10.29-6.76,19.18-12.59,38.03-12.59
		c13.14,0,21.44,2.83,28.75,6.84c3.15,2.27,6.46,4.47,9.97,6.58l0.17-0.28c10.4,6.81,22.38,14.29,44.73,14.29
		C346.75,371.65,358.77,363.76,369.37,356.81z M269.69,187.34c-24.07,10.79-40.99,36.22-43.09,64.78
		c-2.38,32.37,4.3,58.09,20.75,78.66c-2.27-0.18-4.65-0.28-7.16-0.28c-22.95,0-34.96,7.88-45.56,14.84
		c-5.63,3.69-11,7.22-17.92,9.58c-25.17-53.57-12.74-106.54,15.74-139.57c25.86-30,62.15-38.55,87.51-36.55
		c8.36,0.66,16.04,2.41,22.8,5.09C292.3,181.23,280.87,182.32,269.69,187.34z M425.39,196.55c0,27.2-13.7,53.78-34.91,67.73
		c-15.17,9.97-33.53,13.58-54.18,10.84c27.55-7.17,46.29-28.71,52.46-62.14c4.02-21.78-1.19-43.19-15.05-61.91
		c-17.98-24.26-48.76-41.03-82.33-44.85c-15.67-1.78-31.84-1.18-47.78,1.52c18.4-5.84,37.99-9,58.3-9c0.77,0,1.5-0.13,2.2-0.35
		C363.29,99.2,425.39,133.54,425.39,196.55z"/>
	<path class="st0" d="M300,3.53c-157.86,0-286.29,128.42-286.29,286.29c0,50.98,13.57,101.05,39.26,144.78
		c1.42,2.41,3.96,3.76,6.57,3.76c1.31,0,2.64-0.34,3.85-1.05c3.63-2.13,4.84-6.79,2.71-10.41c-24.31-41.4-37.16-88.8-37.16-137.08
		c0-149.47,121.6-271.07,271.07-271.07s271.07,121.6,271.07,271.07c0,46.71-12.07,92.76-34.91,133.16
		c-2.07,3.66-0.78,8.3,2.88,10.37c3.65,2.06,8.3,0.79,10.37-2.88c24.13-42.69,36.88-91.33,36.88-140.66
		C586.29,131.95,457.86,3.53,300,3.53z"/>
	
		<ellipse transform="matrix(0.3827 -0.9239 0.9239 0.3827 29.0885 651.5533)" class="st0" cx="502.1" cy="304.01" rx="7.08" ry="7.08"/>
	<path class="st0" d="M120.67,475.36c2.87,2.86,3.3,6.09,3.49,9.2c0.12,1.34,0.67,2.38,1.41,3.11c1.89,1.88,5.36,2.18,7.43,0.11
		c0.79-0.79,1.46-1.95,1.52-3.72c0.24-3.65-0.5-9.99-6.54-16.01c-7.63-7.6-17.98-8.68-24.73-1.91c-5.17,5.19-5.28,12.01-1.8,21.32
		l2.39,6.27c2.02,5.42,2.45,7.79,0.13,10.11c-2.73,2.75-6.57,2.33-10.17-1.27c-4.09-4.08-4.52-9.37-4.47-12.73
		c-0.06-1.15-0.61-2.19-1.34-2.92c-1.95-1.95-5.18-2.25-7.43-0.11c-1.16,1.16-1.64,2.74-1.64,4.69c-0.29,6.27,2.82,13.64,7.58,18.38
		c8.05,8.03,18.72,9.42,26.13,1.98c5.48-5.49,5.53-12.01,1.8-21.69l-2.57-6.57c-1.96-5.23-2.08-7.31-0.08-9.32
		C114.27,471.78,117.74,472.44,120.67,475.36z"/>
	<path class="st0" d="M168.22,501.53l-13-8.51c-2.89-1.89-6.35-1.17-8.25,1.72l-25.24,38.57c-1.84,2.82-1.16,6.35,1.65,8.2
		c2.75,1.8,6.26,1,8.1-1.82l8.32-12.72l8.23,5.39c10.04,6.57,21.28,4.84,27.23-4.26C181.27,518.95,178.4,508.19,168.22,501.53z
		 M165.3,521.6c-2.78,4.26-7.28,5.14-11.76,2.21l-8.16-5.34l8.98-13.72l8.16,5.34C167,513.01,168,517.48,165.3,521.6z"/>
	<path class="st0" d="M219.22,525.23c-15.96-5.58-32.78,2.25-38.25,17.88c-5.47,15.64,2.72,32.21,18.76,37.83
		c16.05,5.61,32.97-2.27,38.41-17.83C243.59,547.56,235.27,530.84,219.22,525.23z M226.82,559.15
		c-3.59,10.26-13.43,15.14-23.45,11.63c-10.1-3.53-14.7-13.37-11.08-23.71c3.62-10.34,13.35-15.17,23.45-11.63
		C225.76,538.94,230.41,548.89,226.82,559.15z"/>
	<path class="st0" d="M294.38,540.73l-38.53-3.91c-3-0.31-5.55,1.69-5.85,4.69c-0.29,2.92,1.79,5.47,4.79,5.78l13.47,1.37
		l-4.19,41.27c-0.34,3.35,1.88,6.17,5.14,6.51c3.35,0.34,6.1-1.98,6.44-5.33l4.19-41.27l13.47,1.37c3,0.31,5.56-1.78,5.85-4.69
		C299.48,543.51,297.47,541.05,294.38,540.73z"/>
	<path class="st0" d="M355.84,573.84c-1.72,0.21-3.07,1.16-4.26,2.78c-3.24,4.75-7.53,7.36-12.92,8.03
		c-10.62,1.31-19.19-5.46-20.52-16.25c-1.34-10.88,5.32-19.61,15.94-20.92c5.48-0.68,10.36,0.81,14.57,4.64
		c1.46,1.3,3.1,1.88,4.72,1.68c3-0.37,5.1-3.06,4.75-5.89c-0.19-1.54-0.96-2.84-2.33-4.06c-5.8-5.46-14.39-8.14-23.04-7.07
		c-16.96,2.09-28.56,16.57-26.53,33.01c2.03,16.44,16.72,27.67,33.67,25.58c8.74-1.08,16.42-5.76,20.64-12.46
		c1.09-1.7,1.44-3.13,1.27-4.5C361.44,575.58,358.83,573.47,355.84,573.84z"/>
	<path class="st0" d="M428.23,561.04l-34.7-36.35c-1.89-2.05-4.16-2.66-6.58-1.73c-2.42,0.92-3.69,2.89-3.74,5.68l-1.66,50.25
		c0.03,1.29,0.16,2.34,0.46,3.15c1.11,2.9,4.34,4.34,7.41,3.17c2.34-0.89,3.59-2.94,3.6-5.81l0.16-6.34l22.49-8.61l4.35,4.62
		c2,2.1,4.3,2.79,6.64,1.9c3.06-1.17,4.42-4.38,3.31-7.28C429.67,562.89,429.14,561.99,428.23,561.04z M393.31,562.76L393.09,539
		l15.53,17.9L393.31,562.76z"/>
	<path class="st0" d="M452.71,516.87l-6.96,1.17c-5.53,0.84-7.58,0.54-9.14-1.84c-1.94-2.95-0.57-6.22,2.89-8.48
		c3.39-2.23,6.64-1.98,9.72-1.53c1.34,0.15,2.46-0.18,3.33-0.74c2.23-1.46,3.24-4.8,1.63-7.26c-0.62-0.94-1.61-1.83-3.33-2.25
		c-3.53-0.98-9.88-1.56-17.02,3.12c-9.01,5.91-12.19,15.83-6.94,23.83c4.02,6.12,10.67,7.63,20.51,6.13l6.63-1.05
		c5.72-0.86,8.14-0.8,9.93,1.94c2.12,3.24,0.93,6.91-3.32,9.7c-4.83,3.17-10.1,2.5-13.37,1.76c-1.15-0.18-2.27,0.15-3.14,0.72
		c-2.31,1.51-3.26,4.61-1.63,7.25c0.9,1.37,2.35,2.17,4.26,2.57c6.08,1.58,13.93,0.03,19.55-3.65c9.51-6.24,13.06-16.39,7.29-25.19
		C469.33,516.59,462.96,515.2,452.71,516.87z"/>
	<path class="st0" d="M484.53,471.85l9.6-9.55c2.14-2.13,2.15-5.43,0.08-7.5c-2.13-2.15-5.3-2.15-7.5,0.04l-27.46,27.32
		c-2.14,2.13-2.21,5.36-0.08,7.5c2.06,2.08,5.36,2.09,7.5-0.04l9.6-9.55l29.26,29.42c2.37,2.39,5.97,2.46,8.3,0.15
		c2.39-2.38,2.33-5.97-0.04-8.36L484.53,471.85z"/>
</g>
</svg>
