<?xml version="1.0" encoding="utf-8"?>
<!-- Generator: Adobe Illustrator 26.3.1, SVG Export Plug-In . SVG Version: 6.00 Build 0)  -->
<svg version="1.1" id="Calque_1" xmlns="http://www.w3.org/2000/svg" xmlns:xlink="http://www.w3.org/1999/xlink" x="0px" y="0px"
	 viewBox="0 0 38.27 49.68" style="enable-background:new 0 0 38.27 49.68;" xml:space="preserve">
<style type="text/css">
	.st0{fill:#EFF4F1;}
</style>
<path class="st0" d="M20.87,4.33c6.84,0,13.2,3.39,17.04,9.08l-1.27,1.11c-2.55-2.27-5.83-3.53-9.23-3.53
	c-7.64,0-13.85,6.22-13.85,13.85s6.22,13.85,13.85,13.85c3.4,0,6.68-1.25,9.23-3.53l1.27,1.11c-3.82,5.68-10.19,9.08-17.04,9.08
	c-11.31,0-20.52-9.2-20.52-20.52S9.57,4.33,20.87,4.33z M32.75,10.24c-3.32-2.7-7.49-4.22-11.88-4.22
	c-10.37,0-18.82,8.45-18.82,18.82s8.44,18.82,18.82,18.82c4.39,0,8.56-1.53,11.88-4.22c-1.7,0.62-3.5,0.94-5.34,0.94
	c-8.57,0-15.55-6.97-15.55-15.55S18.83,9.28,27.41,9.28C29.25,9.3,31.06,9.62,32.75,10.24z"/>
</svg>
