<?xml version="1.0" encoding="utf-8"?>
<!-- Generator: Adobe Illustrator 26.3.1, SVG Export Plug-In . SVG Version: 6.00 Build 0)  -->
<svg version="1.1" id="Calque_1" xmlns="http://www.w3.org/2000/svg" xmlns:xlink="http://www.w3.org/1999/xlink" x="0px" y="0px"
	 viewBox="0 0 105 105" style="enable-background:new 0 0 105 105;" xml:space="preserve">
<style type="text/css">
	.st0{fill:none;stroke:#EFBC80;stroke-width:3;stroke-linecap:round;stroke-miterlimit:10;}
	.st1{fill:#EFBC80;}
	.st2{fill:none;stroke:#EFBC80;stroke-width:1.98;stroke-linecap:round;stroke-miterlimit:10;}
	.st3{fill:none;stroke:#EFBC80;stroke-width:3;stroke-linecap:round;stroke-linejoin:round;stroke-miterlimit:10;}
</style>
<g>
	<g>
		<path class="st0" d="M27.41,36.39c-2.4-1.33-5.17-2.08-8.11-2.08c-9.28,0-16.8,7.52-16.8,16.8s7.52,16.8,16.8,16.8h5.91v24.03"/>
		<path class="st0" d="M66.07,34.52c3.76-4.64,9.5-7.6,15.93-7.6c11.32,0,20.5,9.18,20.5,20.5s-9.18,20.5-20.5,20.5v18.33"/>
		<path class="st0" d="M22.91,34.66c0.72-15.64,13.62-28.1,29.44-28.1c13.1,0,24.21,8.55,28.04,20.38"/>
	</g>
	<line class="st0" x1="35.55" y1="67.9" x2="35.55" y2="85.62"/>
	<line class="st0" x1="73.96" y1="67.9" x2="73.96" y2="95.33"/>
	<line class="st0" x1="64.46" y1="82.67" x2="64.46" y2="94.02"/>
	<line class="st0" x1="44.96" y1="82.67" x2="44.96" y2="94.02"/>
	<line class="st0" x1="54.79" y1="64.03" x2="54.79" y2="98.44"/>
</g>
</svg>
