<?xml version="1.0" encoding="utf-8"?>
<!-- Generator: Adobe Illustrator 26.3.1, SVG Export Plug-In . SVG Version: 6.00 Build 0)  -->
<svg version="1.1" id="Calque_1" xmlns="http://www.w3.org/2000/svg" xmlns:xlink="http://www.w3.org/1999/xlink" x="0px" y="0px"
	 viewBox="0 0 105 105" style="enable-background:new 0 0 105 105;" xml:space="preserve">
<style type="text/css">
	.st0{fill:none;stroke:#EFBC80;stroke-width:3;stroke-linecap:round;stroke-miterlimit:10;}
	.st1{fill:#EFBC80;}
	.st2{fill:none;stroke:#EFBC80;stroke-width:1.98;stroke-linecap:round;stroke-miterlimit:10;}
	.st3{fill:none;stroke:#EFBC80;stroke-width:3;stroke-linecap:round;stroke-linejoin:round;stroke-miterlimit:10;}
</style>
<g>
	<g>
		<line class="st0" x1="101.07" y1="90.62" x2="3.93" y2="90.62"/>
		<g>
			<path class="st0" d="M101.07,78.24c-12.14,0-12.14-5.51-24.28-5.51c-12.14,0-12.14,5.51-24.28,5.51
				c-12.14,0-12.14-5.51-24.29-5.51c-12.14,0-12.14,5.51-24.29,5.51"/>
		</g>
		<line class="st0" x1="51.39" y1="14.38" x2="51.39" y2="28.56"/>
		<line class="st0" x1="28.66" y1="20.46" x2="35.75" y2="32.74"/>
		<line class="st0" x1="12.02" y1="37.09" x2="24.3" y2="44.18"/>
		<line class="st0" x1="5.91" y1="59.81" x2="20.1" y2="59.81"/>
		<line class="st0" x1="74.08" y1="20.46" x2="66.99" y2="32.74"/>
		<line class="st0" x1="90.72" y1="37.09" x2="78.44" y2="44.18"/>
		<line class="st0" x1="96.82" y1="59.81" x2="82.64" y2="59.81"/>
	</g>
</g>
</svg>
